<svg xmlns="http://www.w3.org/2000/svg" viewBox="0 0 59.968 37.05">
  <g id="noun_seafood_wht" transform="translate(-1.994 -13.45)">
    <path id="Path_28" data-name="Path 28" d="M60.81,27.83a31,31,0,0,0-16.59-8.74c-3.87-5.2-8.72-5.64-13.78-5.64H17.62a1,1,0,0,0-1,1,.94.94,0,0,0,.29.69l6.82,6.83a56.9,56.9,0,0,0-10.31,5.55l-4.31-4L5.76,20.31c-1.91-1.79-1.91-1.79-2.46-1.66a1,1,0,0,0-.65.66A14.88,14.88,0,0,0,4.32,31.37c-1,1.68-3.46,6.81-1.72,12A1,1,0,0,0,3.84,44a.84.84,0,0,0,.35-.21l9.23-8.46a53.26,53.26,0,0,0,14.66,7.51l-6,6a.97.97,0,0,0,.69,1.66H34.86a8.32,8.32,0,0,0,5.92-2.44l3.95-4a.09.09,0,0,1,.05-.07c8-1.81,13.49-7.26,16.3-10.77A4.1,4.1,0,0,0,60.81,27.83ZM20,15.4H30.44c4.26,0,7.85.28,10.91,3.35-.66-.05-1.32-.07-2-.07a40.53,40.53,0,0,0-13.61,2.51v-.06ZM11.83,34.13l-7.74,7.1c-.76-4.8,2.17-9.29,2.2-9.34a1,1,0,0,0,0-1.13,13.33,13.33,0,0,1-2.16-9.31l7.71,7.22a3.82,3.82,0,0,0-1.15,2.68,3.78,3.78,0,0,0,1.14,2.78ZM39.4,46.72a6.35,6.35,0,0,1-4.56,1.87H25.08l5.13-5.13a35.46,35.46,0,0,0,9.11,1.22,15.693,15.693,0,0,0,2.18-.1ZM59.58,32.08c-3.21,4-10.08,10.66-20.23,10.66-11.31,0-21.13-6.18-26-9.87a1.81,1.81,0,0,1-.73-1.49,1.87,1.87,0,0,1,.8-1.51c4.84-3.46,14.64-9.26,25.91-9.26a28.38,28.38,0,0,1,20.08,8.6,2.15,2.15,0,0,1,.13,2.87Z" fill="#fff"/>
    <path id="Path_29" data-name="Path 29" d="M47.59,36.92a7.67,7.67,0,0,1,0-10.82,1,1,0,1,0-1.38-1.38,9.6,9.6,0,0,0,0,13.58A1,1,0,1,0,47.64,37Z" fill="#fff"/>
    <path id="Path_30" data-name="Path 30" d="M52.35,29.07a1.62,1.62,0,1,0,1.169.467,1.63,1.63,0,0,0-1.169-.467Z" fill="#fff"/>
  </g>
</svg>
