<svg xmlns="http://www.w3.org/2000/svg" xmlns:xlink="http://www.w3.org/1999/xlink" version="1.1" x="0px" y="0px" viewBox="0 0 100 125" style="enable-background:new 0 0 100 100;" xml:space="preserve"><path d="M77.3,62.2c-5.2-5.7-7.7-13.3-6.9-20.9l0.1-0.6c0.2-1.7-0.4-3.4-1.5-4.7c-1.1-1.3-2.8-2-4.5-2h-4.3l8.9-18.4  c1.1-2.3,1-5-0.4-7.2C67.3,6.3,65,5,62.4,5c-2.8,0-5.4,1.6-6.7,4.2L43.8,34h-4.9c-1.8,0-3.5,0.8-4.6,2.2C30.4,40.8,18.2,57.4,19,79  v2c0,7.7,6.3,14,14,14h34c7.7,0,14-6.3,14-14v-9.3C81,68.2,79.7,64.8,77.3,62.2z M59.3,10.9C59.9,9.8,61.1,9,62.4,9  c1.2,0,2.2,0.6,2.9,1.6c0.6,1,0.7,2.2,0.2,3.3L55.8,34h-7.6L59.3,10.9z M33,91c-5.5,0-10-4.5-10-10v-2.1  C22.2,58.7,33.8,43,37.3,38.7c0.4-0.5,0.9-0.7,1.5-0.7h9.9C43.8,44.5,34.2,59.6,35,79v2c0,3.9,1.6,7.5,4.2,10H33z M77,81  c0,5.5-4.5,10-10,10H49c-5.5,0-10-4.5-10-10v-2.1c-0.9-21.3,12-37.6,14.9-40.9h10.6c0.6,0,1.1,0.2,1.5,0.7c0.4,0.4,0.6,1,0.5,1.5  l-0.1,0.6c-1,8.8,1.9,17.5,7.9,24c1.7,1.9,2.7,4.3,2.7,6.8V81z M58,67c-5,0-9,4-9,9c0,5,4,9,9,9c5,0,9-4,9-9C67,71,63,67,58,67z   M58,81c-2.8,0-5-2.2-5-5s2.2-5,5-5s5,2.2,5,5S60.8,81,58,81z"/></svg>