<svg xmlns="http://www.w3.org/2000/svg" xmlns:xlink="http://www.w3.org/1999/xlink" version="1.1" x="0px" y="0px" viewBox="0 0 144.083 180" enable-background="new 0 0 144.083 144" xml:space="preserve"><path d="M114.625,90.368c-1.828-1.829-4.258-2.836-6.844-2.836c-2.111,0-4.121,0.672-5.781,1.915l-5.418-5.417  c2.072-3.947,5.818-15.421,0.988-27.1c-1.668-4.04-4.227-7.802-7.604-11.18L73.983,29.768c-0.008-0.007-0.014-0.016-0.021-0.022  c-0.006-0.006-0.012-0.011-0.018-0.016l-0.191-0.191l-0.01,0.011c-2.021-1.898-4.846-2.909-8.208-2.909  c-7.658,0-17.489,5.073-25.657,13.24C27.479,52.278,23.028,67.249,29.743,73.964c0.376,0.376,0.792,0.708,1.227,1.018l14.884,14.885  c8.023,8.024,16.752,9.978,23.347,9.978c0.86,0,1.687-0.034,2.468-0.091c5.588-0.411,10.221-2.135,12.451-3.284l5.43,5.431  c-2.822,3.787-2.516,9.188,0.92,12.625c1.828,1.829,4.258,2.836,6.846,2.836c2.586,0,5.018-1.006,6.846-2.835  c2.035-2.037,3.025-4.873,2.787-7.678c2.811,0.239,5.645-0.754,7.68-2.79c1.828-1.828,2.834-4.259,2.834-6.845  C117.461,94.626,116.454,92.195,114.625,90.368z M31.761,71.53l-0.094,0.094c-5.015-5.484-0.361-18.93,10.331-29.623  c7.626-7.625,16.645-12.361,23.536-12.361c2.697,0,4.813,0.744,6.289,2.211l0.027,0.026c2.49,2.502,2.91,6.889,1.174,12.358  c-1.842,5.812-5.862,12.017-11.318,17.473C54.081,69.334,45.063,74.07,38.173,74.07c-2.115,0-3.868-0.464-5.24-1.368L31.761,71.53z   M83.393,93.448c-0.752,0.432-19.526,10.192-35.418-5.703l-10.71-10.71c0.3,0.017,0.599,0.035,0.907,0.035c0,0,0.001,0,0.002,0  c7.657,0,17.486-5.073,25.653-13.241c5.79-5.789,10.072-12.426,12.058-18.687c0.936-2.951,1.311-5.673,1.148-8.082l10.813,10.812  c3.096,3.097,5.436,6.53,6.953,10.204c5.383,13.018-0.91,24.634-1.248,25.213L83.393,93.448z M112.506,101.937  c-1.82,1.822-4.566,2.428-6.996,1.551c-0.547-0.199-1.16-0.062-1.57,0.35c-0.412,0.41-0.549,1.022-0.352,1.569  c0.877,2.431,0.268,5.178-1.551,6.999c-1.26,1.261-2.938,1.955-4.723,1.955s-3.463-0.695-4.725-1.957  c-2.604-2.604-2.604-6.843-0.037-9.411c0.02-0.016,0.068-0.061,0.086-0.077c0.291-0.279,0.459-0.664,0.463-1.067  s-0.154-0.792-0.439-1.077l-6.176-6.176l8.209-8.209l6.176,6.176c0.281,0.281,0.695,0.403,1.094,0.403  c0.396,0,0.813-0.194,1.094-0.476c1.262-1.262,2.939-1.957,4.723-1.957c1.785,0,3.461,0.695,4.723,1.957s1.957,2.938,1.957,4.724  S113.768,100.676,112.506,101.937z"/><path d="M58.878,58.879c4.938-4.937,8.705-10.715,10.334-15.853c1.226-3.865,1.15-6.979-0.199-8.331  c-0.872-0.872-2.373-1.056-3.479-1.056c-4.736,0-12.977,3.46-20.707,11.189c-5.979,5.979-8.731,11.379-9.987,14.855  c-1.552,4.294-1.608,7.868-0.147,9.328c0.872,0.874,2.374,1.058,3.481,1.058C42.909,70.07,51.148,66.609,58.878,58.879z   M36.84,66.919C36.839,66.919,36.839,66.919,36.84,66.919c-0.944-1.353,0.363-10.223,10.108-19.969  c7.085-7.084,14.601-10.311,18.586-10.311c0.766,0,1.193,0.119,1.351,0.189c0.173,0.376,0.487,2.072-0.532,5.291  c-1.489,4.694-4.986,10.029-9.596,14.638c-7.085,7.085-14.6,10.313-18.583,10.313h-0.001C37.31,67.07,36.877,66.919,36.84,66.919z"/><path d="M46.618,59.75c2.444,0,5.811-1.787,8.576-4.553c1.991-1.99,3.516-4.338,4.182-6.44c0.585-1.842,0.474-3.345-0.304-4.122  c-0.447-0.448-1.115-0.675-1.985-0.675c-2.445,0-5.813,1.786-8.578,4.552c-4.255,4.256-5.458,8.982-3.877,10.563  C45.079,59.523,45.748,59.75,46.618,59.75z M50.63,50.633c2.435-2.434,4.826-3.467,6.091-3.645  c-0.031,0.219-0.091,0.505-0.204,0.862c-0.526,1.659-1.781,3.563-3.443,5.226c-2.44,2.44-4.836,3.473-6.098,3.646  C47.14,55.599,48.034,53.229,50.63,50.633z"/></svg>