<svg xmlns="http://www.w3.org/2000/svg" viewBox="0 0 467.973 437.056">
  <g id="noun_pizza_wht" transform="translate(-22.021 -48.638)">
    <g id="Group_1" data-name="Group 1">
      <path id="Path_17" data-name="Path 17" d="M483.276,310.147c.054-.2.1-.412.151-.617q.708-2.729,1.338-5.475c.041-.18.084-.359.125-.539q2.163-9.528,3.41-19.254c0-.028.007-.056.011-.084q.811-6.354,1.232-12.78c.023-.345.04-.69.061-1.034q.152-2.516.241-5.04c.018-.5.039-1,.053-1.5.058-2.013.1-4.029.1-6.051q0-3.148-.1-6.292c-.022-.734-.063-1.466-.093-2.2-.055-1.357-.113-2.713-.2-4.068-.053-.883-.122-1.763-.187-2.644-.088-1.2-.18-2.4-.289-3.6-.085-.94-.181-1.878-.279-2.817q-.178-1.713-.385-3.423-.174-1.434-.366-2.864c-.153-1.131-.32-2.26-.492-3.388-.144-.941-.286-1.882-.442-2.82-.2-1.169-.409-2.334-.625-3.5-.163-.884-.319-1.77-.493-2.652-.265-1.336-.556-2.664-.847-3.993-.154-.7-.294-1.411-.456-2.113-.007-.029-.012-.058-.019-.087,0-.01-.007-.019-.01-.029q-.705-3.051-1.5-6.079l-1.159-4.217c-.012-.039-.022-.078-.035-.116l-.163-.517a206.987,206.987,0,0,0-19.472-45.552c-3.066-5.286-6.347-10.42-9.728-15.224l-1.148-1.632c-.08-.112-.164-.22-.244-.332-.022-.032-.034-.067-.057-.1-.847-1.174-1.71-2.334-2.578-3.488l-.089-.121q-1.24-1.644-2.515-3.257c-.2-.25-.388-.505-.586-.754-.672-.848-1.358-1.683-2.043-2.519-.381-.466-.757-.938-1.142-1.4-.5-.6-1-1.179-1.506-1.769-.585-.687-1.166-1.379-1.76-2.057-.293-.334-.593-.661-.888-.994-.814-.919-1.63-1.837-2.46-2.74-.056-.061-.114-.12-.17-.181A205.245,205.245,0,0,0,394.217,83.82h0c-1.49-.946-2.995-1.865-4.506-2.771-.292-.175-.584-.351-.877-.525q-2.232-1.323-4.491-2.588c-.226-.126-.454-.25-.681-.375q-2.121-1.176-4.266-2.3c-.211-.111-.421-.224-.633-.334q-2.256-1.171-4.538-2.281-.568-.277-1.138-.55c-1.493-.717-2.992-1.423-4.5-2.1-.3-.137-.611-.268-.916-.4q-1.836-.817-3.689-1.6c-.547-.231-1.093-.462-1.641-.688q-2.014-.828-4.044-1.615c-.677-.262-1.358-.516-2.038-.771q-1.318-.494-2.645-.969c-.522-.188-1.04-.389-1.564-.573-.036-.012-.072-.014-.108-.026a206.152,206.152,0,0,0-68.013-11.5c-3.985,0-7.961.133-11.927.363-.078,0-.152-.014-.231-.009-.267.016-.533.043-.8.059-.626.039-1.251.094-1.877.139-1.623.116-3.244.239-4.862.394-.452.043-.9.1-1.354.144-1.76.18-3.518.373-5.271.6-.414.053-.826.116-1.24.172-1.763.237-3.522.489-5.277.771-.478.077-.954.165-1.431.245-1.666.28-3.33.572-4.988.893-.607.117-1.21.248-1.815.37-1.509.307-3.017.62-4.518.96-.766.173-1.528.362-2.292.543-1.324.316-2.647.634-3.964.976-.934.242-1.863.5-2.794.756-1.132.311-2.264.621-3.39.951-1.093.32-2.179.658-3.266,1-.954.3-1.908.591-2.858.9-1.224.4-2.442.82-3.658,1.243-.806.28-1.612.558-2.414.848-1.319.477-2.631.975-3.94,1.479-.7.268-1.394.534-2.088.81-1.373.546-2.737,1.112-4.1,1.687-.632.267-1.264.532-1.893.806q-2.07.9-4.118,1.85c-.616.284-1.232.567-1.845.857q-2.007.95-3.991,1.947c-.652.326-1.3.653-1.952.986q-1.867.96-3.716,1.962-1.11.6-2.213,1.21c-.522.29-1.052.564-1.571.859-.093.053-.168.122-.255.181-2.833,1.613-5.641,3.273-8.4,5.023a4,4,0,0,0-1.234,5.518L276.641,253.775H81.852a4,4,0,0,0-4,4c0,1.748.03,3.494.074,5.238q.015.588.032,1.177c.053,1.709.122,3.417.217,5.122.015.262.034.522.049.784q.133,2.254.318,4.5c.033.411.064.823.1,1.234q.211,2.428.48,4.85c.055.5.117,1,.176,1.494q.221,1.857.473,3.708c.072.528.139,1.057.216,1.585q.315,2.176.68,4.345c.123.742.253,1.483.385,2.224q.246,1.381.513,2.76.351,1.828.735,3.647c.168.8.337,1.594.515,2.388.1.464.194.932.3,1.4.014.063.043.117.061.179q1.426,6.154,3.223,12.219l.616,2.035a206.971,206.971,0,0,0,18.438,42.076c2.816,4.873,5.847,9.659,9.009,14.229.659.951,1.336,1.886,2.01,2.824.049.079.084.164.139.241,1.252,1.736,2.537,3.442,3.837,5.134.139.181.28.36.42.541q1.307,1.689,2.642,3.348c.248.307.5.612.747.917q1.194,1.463,2.41,2.9c.33.39.662.776,1,1.163q1.121,1.3,2.26,2.586.588.662,1.181,1.316,1.08,1.194,2.177,2.369.652.7,1.31,1.391,1.065,1.121,2.148,2.224.7.714,1.4,1.421,1.071,1.071,2.159,2.125c.484.47.967.94,1.456,1.4q1.1,1.049,2.22,2.078c.488.451.975.9,1.467,1.35.766.7,1.541,1.38,2.317,2.063.482.424.962.85,1.449,1.27.811.7,1.631,1.388,2.453,2.076.464.388.925.779,1.393,1.163.87.715,1.751,1.417,2.634,2.118.433.344.862.692,1.3,1.032.947.74,1.9,1.465,2.866,2.189.385.29.765.585,1.152.872,1.044.775,2.1,1.535,3.16,2.291.318.227.631.46.951.685q1.77,1.248,3.571,2.457c.212.143.42.291.633.434q2.124,1.42,4.286,2.8l.005,0c1.579,1.012,3.181,1.979,4.527,2.786l.366.218.226.135c1.72,1.028,3.547,2.08,5.615,3.229l2.083,1.1c1.133.609,2.267,1.214,3.41,1.8l.764.4,1.371.668q1.818.908,3.652,1.78l1.382.674c2.088.961,4.313,1.977,6.527,2.9l1.609.674c.077.032.154.062.233.089.819.339,1.657.655,2.484.985.865.343,1.726.7,2.6,1.029,2.148.823,4.31,1.621,6.482,2.372,1.519.514,3.317,1.115,5.132,1.678.061.02.123.037.186.053a205.947,205.947,0,0,0,61.676,9.366h1.854l3.787-.038a3.863,3.863,0,0,0,.529-.047l5.037-.178c.053,0,.105,0,.158-.007l1.738-.106c.059,0,.118-.006.177-.011l3.565-.254a3.937,3.937,0,0,0,.62-.087l3.2-.263,3.583-.407c.046,0,.092-.009.137-.015l1.241-.177q3.465-.432,6.909-.988l2.678-.383q.081-.012.162-.027l3.391-.646c.059-.009.117-.019.176-.03l5.183-1.068c.061-.01.121-.021.181-.034l1.818-.391,8.827-2.215,6.7-1.989c.066-.017.133-.035.2-.056l1.685-.521.1-.031,1.477-.5c.07-.02.14-.04.208-.063l4.871-1.72c.072-.021.145-.046.217-.071l6.644-2.536.1-.039,1.394-.583c.081-.027.161-.059.241-.092l3.282-1.377,4.359-2.008c.492-.227.986-.449,1.476-.68l2.209-1.017.1-.051,1.333-.675c.081-.034.161-.071.239-.111l3.192-1.614,4.375-2.354c.107-.048.212-.1.314-.16l2.8-1.6c.083-.04.166-.084.247-.131l1.56-.9,6.017-3.679c.012-.007.021-.018.033-.025q2.3-1.463,4.558-2.982c.416-.279.826-.567,1.239-.85q1.719-1.173,3.414-2.375c.374-.266.745-.537,1.117-.806q1.839-1.328,3.645-2.692l.706-.535a205.235,205.235,0,0,0,21.651-19.049s0,0,.005-.005a0,0,0,0,1,0,0,207.536,207.536,0,0,0,21.015-24.932l1.185-1.7c3.315-4.716,6.545-9.771,9.607-15.041a209.3,209.3,0,0,0,12.472-25.543,3.973,3.973,0,0,0,.255-.484,205.081,205.081,0,0,0,7.213-21.175c.03-.107.065-.213.1-.321l.012-.035c.02-.06.037-.12.054-.181l.211-.78q.215-.783.424-1.567ZM455.464,158.814a199.2,199.2,0,0,1,18.74,43.864l1.278,4.572q1.447,5.485,2.57,11.059c.153.754.287,1.512.431,2.268.2,1.046.4,2.092.581,3.142.145.837.276,1.677.411,2.517.157.978.311,1.957.453,2.938.124.86.24,1.721.353,2.583q.192,1.467.364,2.938.148,1.276.282,2.556c.105,1.021.2,2.043.288,3.066.071.81.144,1.619.2,2.43.086,1.15.155,2.3.222,3.454.04.683.088,1.366.12,2.05.087,1.839.155,3.681.191,5.525H466.34a67.688,67.688,0,0,0,.775-10c0-16.609-7.194-26.521-14.15-36.1-6.225-8.576-12.661-17.443-14.842-32-5.729-38.346-13.859-41.456-27.736-43.651-8.258-1.307-17.571-2.781-30.245-18.536l1.811-2.856,0,0,2.51-3.958,8.822-13.913a197.758,197.758,0,0,1,36.722,31.375c.206.225.416.445.621.671.606.668,1.2,1.348,1.8,2.025.413.468.831.931,1.24,1.4s.8.938,1.193,1.407c.593.7,1.19,1.4,1.774,2.1.226.273.446.553.67.827.745.913,1.489,1.827,2.22,2.754.082.1.161.21.243.314q2.693,3.432,5.251,6.994l1.073,1.526C449.365,148.8,452.52,153.737,455.464,158.814Zm-6.785,148.393c1.26,3.28,2.254,5.87,2.254,8.5,0,4.628-2.816,11.6-23.706,28.222-13.067,10.375-18.162,21.778-22.657,31.839-4.961,11.1-9.291,20.787-23.385,27.964L291.3,261.949l-.11-.174H451.394c-4.477,10.273-6.671,19.2-6.671,27.147C444.723,296.9,446.916,302.616,448.679,307.207ZM109.593,261.776H276.642L200.557,381.812,192.2,395c-13.846-16.219-25.1-18.011-33.488-19.339-10.273-1.625-15.933-2.521-21.075-36.932-2.47-16.485-9.809-26.593-16.283-35.512-6.782-9.341-12.639-17.408-12.639-31.439A62.419,62.419,0,0,1,109.593,261.776Zm174.321-11.47L195.925,111.522c32.947-1.876,41.849-12.866,48.46-21.032,4.041-4.991,6.267-7.741,13-7.741,6.271,0,15.935,2.6,29.539,7.949a64.99,64.99,0,0,0,24.58,4.648,135.467,135.467,0,0,0,14.358-.967,118.815,118.815,0,0,1,12.268-.859c8.434,0,18.909,1.677,32.657,14.111.793.719,1.572,1.362,2.347,1.965l-1.258,1.984c-.018.028-.029.059-.046.087l-31.421,49.552Zm173.744,3.469H291.187l84.459-133.193c13.849,16.223,25.1,18.015,33.494,19.343,10.273,1.625,15.933,2.521,21.074,36.934,2.47,16.487,9.807,26.6,16.279,35.512,6.774,9.333,12.625,17.394,12.625,31.406a62.32,62.32,0,0,1-.882,10h-.578ZM202.293,77.423c.1-.047.208-.1.313-.146,1.465-.659,2.944-1.288,4.424-1.911.425-.179.847-.366,1.273-.542,1.3-.536,2.611-1.046,3.923-1.555.63-.244,1.257-.5,1.889-.733,1.165-.438,2.338-.854,3.511-1.27.8-.285,1.609-.575,2.418-.849,1.039-.353,2.083-.689,3.128-1.025.968-.311,1.937-.622,2.91-.918.917-.28,1.839-.547,2.76-.813,1.124-.324,2.25-.644,3.38-.948q1.2-.322,2.4-.628,1.915-.491,3.839-.945,1.02-.24,2.044-.47,2.13-.477,4.27-.907c.572-.115,1.144-.23,1.717-.34q2.317-.444,4.647-.832c.48-.08.959-.163,1.44-.24q2.46-.393,4.932-.721c.419-.056.838-.117,1.258-.17,1.682-.215,3.367-.4,5.055-.573.41-.042.819-.089,1.229-.128,1.629-.155,3.261-.281,4.895-.4.5-.035.993-.079,1.49-.11q6.228-.393,12.492-.4a198.076,198.076,0,0,1,68.043,12.012c.455.167.912.328,1.366.5.756.283,1.509.574,2.261.866q.986.382,1.968.777c.671.268,1.342.535,2.009.811q1.744.722,3.474,1.478.793.347,1.584.7,1.508.673,3.006,1.372c.332.155.666.305,1,.462q1.957.929,3.894,1.9c.364.182.727.367,1.09.551q1.891.963,3.764,1.962c.089.048.178.093.267.141q2.013,1.083,4,2.219.459.261.916.524,1.995,1.147,3.967,2.337l-9.1,14.343q-.631-.518-1.281-1.109C363.613,90.36,352.24,85.52,338.126,85.52a126.3,126.3,0,0,0-13.1.9,129.487,129.487,0,0,1-13.529.924,57.218,57.218,0,0,1-21.65-4.093c-14.759-5.8-25.076-8.5-32.469-8.5-10.545,0-14.952,5.443-19.213,10.707-6.266,7.74-14.048,17.326-47.188,18.265l-9.669-15.25A196.325,196.325,0,0,1,202.293,77.423ZM112.381,356.737a198.956,198.956,0,0,1-17.73-40.467l-.58-1.916q-2.794-9.385-4.638-19c-.054-.282-.108-.563-.16-.845q-.534-2.846-.986-5.706c-.031-.2-.066-.395-.1-.592q-.491-3.168-.879-6.353c-.018-.151-.032-.3-.05-.455q-.33-2.763-.577-5.537c-.053-.585-.1-1.171-.148-1.757q-.183-2.238-.315-4.483c-.035-.593-.074-1.186-.1-1.779-.1-2.019-.182-4.041-.223-6.066h15.6a67.8,67.8,0,0,0-.776,10c0,16.629,7.2,26.548,14.165,36.14,6.227,8.576,12.665,17.445,14.845,31.995,5.73,38.346,13.86,41.455,27.737,43.65,8.256,1.306,17.569,2.781,30.241,18.532l-13.143,20.735q-1.951-1.293-3.867-2.629c-.208-.145-.411-.3-.618-.44q-1.589-1.116-3.156-2.256c-.317-.232-.629-.471-.944-.7-.922-.683-1.843-1.369-2.752-2.067-.375-.288-.743-.583-1.116-.873-.838-.653-1.675-1.308-2.5-1.974-.411-.331-.816-.669-1.225-1-.777-.636-1.553-1.273-2.319-1.92-.433-.366-.861-.738-1.291-1.108-.731-.628-1.46-1.257-2.181-1.9-.442-.391-.878-.788-1.317-1.182q-1.052-.947-2.09-1.906c-.439-.407-.873-.818-1.308-1.229q-1.024-.967-2.036-1.947c-.424-.412-.845-.829-1.266-1.245q-1.017-1.006-2.019-2.026-.6-.609-1.19-1.225-1.029-1.066-2.042-2.149-.541-.579-1.08-1.163-1.063-1.155-2.11-2.329-.462-.519-.922-1.039-1.13-1.285-2.238-2.591c-.237-.279-.474-.557-.709-.837q-1.233-1.469-2.439-2.964c-.141-.175-.284-.349-.425-.525q-1.391-1.736-2.747-3.5l-.034-.044q-2.867-3.747-5.57-7.645C118,366.024,115.089,361.423,112.381,356.737Zm177.046,98.885a4.082,4.082,0,0,0-.521.046l-4.975.026a197.945,197.945,0,0,1-59.458-9.055q-.1-.033-.21-.06c-1.67-.521-3.339-1.079-4.737-1.552-.368-.127-.735-.271-1.1-.4-.011,0-.02-.011-.031-.014-1.932-.676-3.851-1.393-5.763-2.13-1.415-.548-2.828-1.1-4.221-1.678q-6.183-2.55-12.187-5.526l-7.184-3.732q-3.836-2.094-7.583-4.348l-.139-.083,14.66-23.106c.031-.048.051-.1.08-.15l87.861-138.612,88.006,138.818c-32.942,1.861-41.847,12.851-48.461,21.016-4.04,4.988-6.267,7.736-12.985,7.736-6.27,0-15.934-2.605-29.547-7.966a65,65,0,0,0-24.525-4.626,135.591,135.591,0,0,0-14.38.97,118.566,118.566,0,0,1-12.282.862,42.937,42.937,0,0,1-10.488-1.2,4,4,0,1,0-1.935,7.762,50.752,50.752,0,0,0,12.423,1.439,126.313,126.313,0,0,0,13.112-.9,129.3,129.3,0,0,1,13.549-.927,57.254,57.254,0,0,1,21.6,4.07c14.764,5.813,25.083,8.521,32.476,8.521,10.534,0,14.94-5.44,19.2-10.7,6.269-7.74,14.04-17.332,47.188-18.254l9.669,15.251-.347.206q-2.221,1.34-4.477,2.618l-.557.318c-.985.554-1.983,1.083-2.977,1.621l-4.1,2.156c-1.007.514-2.012,1.034-3.028,1.53l-1.025.493a198.394,198.394,0,0,1-50.493,16.436l-.214.037q-8.655,1.568-17.447,2.361l-.565.05q-2.865.25-5.738.421c-.114.007-.22.037-.332.053l-.347.021h-.017Zm166.045-98.857c-2.94,5.058-6.045,9.919-9.239,14.463l-1.166,1.676a198.966,198.966,0,0,1-20.078,23.846c-.029.028-.064.047-.092.076a199.436,199.436,0,0,1-19.044,16.952l-.17.133q-1.827,1.425-3.69,2.8c-.155.115-.309.232-.465.347q-1.74,1.285-3.51,2.528c-.208.147-.413.3-.622.443q-2.034,1.424-4.1,2.8l-5.472-8.629-2.334-3.683c16.093-8.45,21.319-20.145,26.385-31.482,4.323-9.675,8.793-19.679,20.331-28.84,19.234-15.3,26.729-24.973,26.729-34.484,0-4.116-1.353-7.641-2.785-11.371-1.684-4.386-3.425-8.921-3.425-15.417,0-7.616,2.439-16.517,7.447-27.147h21.785c-.037,1.836-.1,3.67-.191,5.5-.016.337-.036.674-.054,1.011q-.126,2.408-.309,4.811c-.017.227-.034.453-.052.68a198.376,198.376,0,0,1-5.684,33.817q-.255.984-.519,1.965l-.344,1.271-.007.021c-.017.052-.032.1-.047.155A199.527,199.527,0,0,1,455.472,356.765Z" fill="#fff"/>
      <path id="Path_18" data-name="Path 18" d="M231.589,225.178a4,4,0,0,0-.126-4.069L124.265,51.993,123.32,50.5a4,4,0,0,0-5.524-1.239l-.015.01q-2.535,1.61-5.021,3.294c-.507.343-1,.7-1.507,1.049-1.161.8-2.321,1.6-3.466,2.427-.508.366-1,.745-1.509,1.115-1.138.835-2.274,1.673-3.394,2.531-.447.343-.885.7-1.33,1.042-1.173.913-2.34,1.832-3.493,2.771-.372.3-.739.615-1.109.921q-1.827,1.507-3.622,3.053c-.3.26-.6.525-.9.787q-1.876,1.641-3.715,3.325c-.25.229-.5.462-.745.693q-1.884,1.746-3.725,3.538c-.227.221-.451.444-.677.666-.72.708-1.449,1.406-2.158,2.125-.082.083-.142.179-.215.267a206.9,206.9,0,0,0-31.288,40.839,3.888,3.888,0,0,0-.181.352l-1.007,1.752a205.787,205.787,0,0,0-11.58,24.006,3.875,3.875,0,0,0-.258.491,204.728,204.728,0,0,0-14.864,76.937,4,4,0,0,0,4,4H228.084A4.007,4.007,0,0,0,231.589,225.178ZM30.127,219.25a197.712,197.712,0,0,1,25.545-93.472l1.161-2.02c.058-.1.11-.2.159-.308A199.056,199.056,0,0,1,88.053,83.293l.082-.081q1.895-1.89,3.839-3.728c.149-.141.3-.281.45-.422q1.752-1.648,3.545-3.254c.249-.223.5-.446.75-.668q1.643-1.458,3.319-2.877c.336-.285.671-.57,1.009-.852q1.557-1.3,3.143-2.572c.406-.326.81-.655,1.219-.978,1-.795,2.023-1.574,3.043-2.35.453-.344.9-.693,1.357-1.033,1.025-.765,2.064-1.513,3.1-2.258.448-.321.89-.649,1.34-.966q2.026-1.427,4.09-2.8c.127-.085.252-.174.379-.258l7.7,12.172c-15.936,8.435-21.139,20.088-26.184,31.387-4.322,9.679-8.791,19.687-20.318,28.848-19.243,15.3-26.74,24.961-26.74,34.467,0,4.114,1.353,7.635,2.785,11.363,1.685,4.386,3.426,8.92,3.426,15.418,0,7.677-2.477,16.659-7.562,27.4h-21.7Zm30.49,0c4.548-10.377,6.777-19.388,6.777-27.4,0-7.981-2.195-13.7-3.958-18.287-1.258-3.276-2.252-5.864-2.252-8.494,0-4.623,2.818-11.589,23.718-28.205,13.057-10.376,18.15-21.784,22.645-31.849,4.939-11.061,9.252-20.712,23.19-27.873L220.813,219.25Z" fill="#fff"/>
      <path id="Path_19" data-name="Path 19" d="M283.932,98.352a28.577,28.577,0,1,0,28.576,28.575A28.616,28.616,0,0,0,283.932,98.352Zm0,49.153a20.576,20.576,0,1,1,20.576-20.578A20.609,20.609,0,0,1,283.932,147.505Z" fill="#fff"/>
      <path id="Path_20" data-name="Path 20" d="M397.28,163.784a28.614,28.614,0,1,0,24.8,14.3A28.59,28.59,0,0,0,397.28,163.784Zm10.358,46.385a20.579,20.579,0,1,1,7.514-28.086,0,0,0,0,1,0,0,20.538,20.538,0,0,1-7.515,28.085Z" fill="#fff"/>
      <path id="Path_21" data-name="Path 21" d="M411.617,298.49a28.522,28.522,0,1,0,14.3,24.751A28.539,28.539,0,0,0,411.617,298.49Zm3.536,35.014h0a20.521,20.521,0,1,1,2.766-10.263A20.671,20.671,0,0,1,415.153,333.5Z" fill="#fff"/>
      <path id="Path_22" data-name="Path 22" d="M283.914,417.2a28.558,28.558,0,1,0-28.575-28.539A28.6,28.6,0,0,0,283.914,417.2Zm0-49.116a20.558,20.558,0,1,1-20.575,20.577A20.609,20.609,0,0,1,283.914,368.085Z" fill="#fff"/>
      <path id="Path_23" data-name="Path 23" d="M145.75,337.511a116.14,116.14,0,1,1,0-.005S145.749,337.509,145.75,337.511Zm14.458-32.127a20.6,20.6,0,1,1-10.285,17.869A20.612,20.612,0,0,1,160.208,305.384Z" fill="#fff"/>
      <path id="Path_24" data-name="Path 24" d="M127.38,137.374a28.6,28.6,0,1,0,14.3,24.788A28.619,28.619,0,0,0,127.38,137.374Zm3.547,35.057a20.6,20.6,0,1,1,2.752-10.268A20.675,20.675,0,0,1,130.927,172.431Z" fill="#fff"/>
    </g>
    <text id="Created_by_ibrandify" data-name="Created by ibrandify" transform="translate(22.021 478.694)" fill="#fff" font-size="5" font-family="Arial-BoldMT, Arial" font-weight="700"><tspan x="0" y="0">Created by ibrandify</tspan></text>
    <text id="from_the_Noun_Project" data-name="from the Noun Project" transform="translate(22.021 483.694)" fill="#fff" font-size="5" font-family="Arial-BoldMT, Arial" font-weight="700"><tspan x="0" y="0">from the Noun Project</tspan></text>
  </g>
</svg>
