<svg xmlns="http://www.w3.org/2000/svg" viewBox="0 0 494.038 478.096">
  <g id="noun_pasta_wht" transform="translate(-3.588 -14.264)">
    <path id="Path_11" data-name="Path 11" d="M83.091,54.021c5.246.043,10.158.065,15.018.065,3.464,0,6.9-.012,10.415-.034V66.926c-8.028.236-16.387.2-24.954-.138a10,10,0,0,0-.791,19.984c5.321.211,10.578.316,15.738.316,3.388,0,6.714-.063,10.007-.154v14.307c-8.249-.1-16.783-.084-25.477.07a10,10,0,1,0,.174,20l.181,0c8.581-.153,17-.169,25.122-.065v15.4c-7.933.111-16.759.1-25.183-.044a10,10,0,0,0-.334,20c4.811.08,9.754.12,14.6.12,3.736,0,7.408-.024,10.919-.072v135a10,10,0,1,0,20,0V24.264a10,10,0,0,0-20,0v9.789c-8.382.055-16.34.045-25.266-.032h-.085a10,10,0,1,0-.082,20Z" fill="#fff"/>
    <path id="Path_12" data-name="Path 12" d="M143.634,261.8a10,10,0,0,0,10-10V24.264a10,10,0,0,0-20,0V251.8a10,10,0,0,0,10,10Z" fill="#fff"/>
    <path id="Path_13" data-name="Path 13" d="M168.743,172.137a10,10,0,0,0,10-10V24.264a10,10,0,0,0-20,0V162.137a10,10,0,0,0,10,10Z" fill="#fff"/>
    <path id="Path_14" data-name="Path 14" d="M193.853,172.137a10,10,0,0,0,10-10V24.264a10,10,0,0,0-20,0V162.137a10,10,0,0,0,10,10Z" fill="#fff"/>
    <path id="Path_15" data-name="Path 15" d="M473.2,72.7c-.1,0-.206,0-.309,0l-189.9,5.876c-.028-.475-.054-.946-.083-1.425-.275-4.683-.535-9.105-.693-13.082a9.994,9.994,0,0,0-.3-2.081c-5.967-23.328-32.066-29.749-52.947-28.176v-9.55a10,10,0,0,0-20,0V163.792a10,10,0,1,0,20,0v-6.846c16-.014,35.715-.185,47.575-16.851,5.13-6.376,7.036-16.688,7.377-30.219l188.865,7.968q.21.009.421.009c13.468,0,24.426-10.128,24.426-22.577S486.668,72.7,473.2,72.7ZM228.961,87.057c11.5-.036,23.034-.1,34.463-.2.255,4.813.463,9.706.542,14.416-11.551-.043-23.267-.073-35.005-.09Zm.942-33.262c10.384-.875,28.584.77,32.376,12.283.011.259.025.53.037.791-11.065.091-22.229.153-33.355.187V53.826c.312,0,.626,0,.942-.031Zm30.46,74.528c-5.507,7.923-16.022,8.6-31.4,8.621V121.187c11.388.016,22.758.044,33.973.086-.852,4.886-1.914,6.205-1.98,6.284q-.314.369-.59.766Zm213-30.473L402.89,94.878l70.43-2.18c2.675.048,4.306,1.682,4.306,2.577s-1.614,2.511-4.262,2.575Z" fill="#fff"/>
    <path id="Path_16" data-name="Path 16" d="M410.7,400.9a10,10,0,0,0,.255-2.215c0-49.442-43.457-89.666-96.873-89.666A104.391,104.391,0,0,0,293.833,311c-5.185-32.46-35.2-57.439-71.354-57.439-39.031,0-72.3,27.459-75.633,61.115-15.867,4.006-29.418,12.411-38.4,24.159A71.638,71.638,0,0,0,89.5,336.289c-37.021,0-67.141,27.993-67.141,62.4a9.957,9.957,0,0,0,.618,3.434A33.251,33.251,0,0,0,3.588,432.312v.413A33.251,33.251,0,0,0,36.8,465.938h8.232a26.84,26.84,0,0,0,26.8,26.422H364.881a26.84,26.84,0,0,0,26.8-26.422h8.232a33.25,33.25,0,0,0,33.212-33.213v-.413A33.264,33.264,0,0,0,410.7,400.9Zm-19.745-2.215c0,.138.015.272.021.409H381.2c.006-.137.021-.271.021-.409,0-34.407-30.119-62.4-67.141-62.4s-67.141,27.993-67.141,62.4c0,.138.015.272.021.409h-9.773c.006-.137.021-.271.021-.409,0-38.414,34.485-69.666,76.872-69.666s76.873,31.251,76.873,69.665ZM314.08,363.555c-20.627,0-37.409,15.762-37.409,35.135,0,.138.015.272.021.409h-9.773c.006-.137.021-.271.021-.409,0-23.38,21.147-42.4,47.141-42.4s47.141,19.021,47.141,42.4c0,.138.015.272.021.409h-9.773c.006-.137.021-.271.021-.409,0-19.374-16.781-35.135-37.409-35.135ZM331.51,399.1H296.651c.006-.137.021-.271.021-.409,0-8.346,7.81-15.135,17.409-15.135s17.409,6.789,17.409,15.135C331.489,398.828,331.5,398.962,331.51,399.1ZM149.926,371.506c5.424-3.745,13.117-4.651,19.233-4.651,6.73,0,17.622,4.252,25.417,12.379,5.6,5.838,8.62,12.509,9.009,19.864H156.621c.006-.137.021-.271.021-.409a58.437,58.437,0,0,0-6.716-27.183ZM197.1,317.131c1.508-6,7-13.834,25.377-13.834a29.153,29.153,0,0,1,20.778,8.856,24.335,24.335,0,0,1,7.183,17.686,10.035,10.035,0,0,0,.051,1.264,93.538,93.538,0,0,0-14.363,14.416c-9.252-12.612-23.224-22.7-39.026-28.388Zm-14.043-29.465a62.292,62.292,0,0,1,39.42-14.105c27.233,0,49.643,19.089,51.943,43.326q-2.615,1.09-5.144,2.322a45.1,45.1,0,0,0-11.673-20.989A49.264,49.264,0,0,0,222.479,283.3c-12.52,0-23.4,3.106-31.452,8.982a34.442,34.442,0,0,0-13.448,20.263,80.477,80.477,0,0,0-9.02-.517c-.364,0-.725.01-1.088.014C169.5,302.989,174.847,294.537,183.059,287.666Zm-14.5,44.36c23.067,0,47.234,14.4,55.866,32.716a84.077,84.077,0,0,0-5.175,15.6,53.61,53.61,0,0,0-10.24-14.954c-10.634-11.086-26.648-18.534-39.851-18.534-12.791,0-23.382,2.972-31.256,8.656a66.62,66.62,0,0,0-10.367-8.2c9.457-9.656,24.283-15.28,41.021-15.28ZM89.5,356.289c25.994,0,47.141,19.021,47.141,42.4,0,.138.015.272.021.409h-9.773c.006-.137.021-.271.021-.409,0-19.373-16.781-35.135-37.409-35.135s-37.409,15.762-37.409,35.135c0,.138.015.272.021.409H42.34c.006-.137.021-.271.021-.409C42.36,375.31,63.508,356.289,89.5,356.289Zm17.429,42.81H72.072c.006-.137.021-.271.021-.409,0-8.346,7.81-15.135,17.409-15.135s17.409,6.789,17.409,15.135c0,.139.015.273.021.41Zm257.95,73.261H71.836a6.907,6.907,0,0,1-6.793-6.422H371.674a6.907,6.907,0,0,1-6.793,6.422Zm48.249-39.635a13.228,13.228,0,0,1-13.212,13.214H36.8a13.228,13.228,0,0,1-13.213-13.213v-.413A13.228,13.228,0,0,1,36.8,419.1H399.917a13.228,13.228,0,0,1,13.212,13.213Z" fill="#fff"/>
  </g>
</svg>
