<svg xmlns="http://www.w3.org/2000/svg" viewBox="0 0 62.038 90">
  <path id="noun_lamb_wht" d="M77.3,62.2a26.838,26.838,0,0,1-6.9-20.9l.1-.6A6.22,6.22,0,0,0,69,36a5.915,5.915,0,0,0-4.5-2H60.2l8.9-18.4a7.4,7.4,0,0,0-.4-7.2,7.487,7.487,0,0,0-13,.8L43.8,34H38.9a5.831,5.831,0,0,0-4.6,2.2C30.4,40.8,18.2,57.4,19,79v2A14.041,14.041,0,0,0,33,95H67A14.041,14.041,0,0,0,81,81V71.7A14,14,0,0,0,77.3,62.2Zm-18-51.3A3.625,3.625,0,0,1,62.4,9a3.432,3.432,0,0,1,3.1,4.9L55.8,34H48.2ZM33,91A10.029,10.029,0,0,1,23,81V78.9C22.2,58.7,33.8,43,37.3,38.7a1.8,1.8,0,0,1,1.5-.7h9.9C43.8,44.5,34.2,59.6,35,79v2a13.888,13.888,0,0,0,4.2,10ZM77,81A10.029,10.029,0,0,1,67,91H49A10.029,10.029,0,0,1,39,81V78.9C38.1,57.6,51,41.3,53.9,38H64.5a1.8,1.8,0,0,1,1.5.7,1.741,1.741,0,0,1,.5,1.5l-.1.6a30.263,30.263,0,0,0,7.9,24A10.242,10.242,0,0,1,77,71.6ZM58,67a9,9,0,1,0,9,9A8.963,8.963,0,0,0,58,67Zm0,14a5,5,0,1,1,5-5A4.951,4.951,0,0,1,58,81Z" transform="translate(-18.962 -5)" fill="#fff"/>
</svg>
