<svg xmlns="http://www.w3.org/2000/svg" viewBox="0 0 64 80" x="0px" y="0px"><g><path d="M61,54H56.906a6.318,6.318,0,0,0,.315-3.436,1,1,0,0,0-.784-.785,7.291,7.291,0,0,0-1.954-.073c.1-.359.174-.69.238-.992C55.289,48.3,57,46.883,57,45c0-2.129-2.192-3.662-2.442-3.83a1,1,0,0,0-1.116,0C53.192,41.338,51,42.871,51,45a4.679,4.679,0,0,0,1.766,3.29,16.708,16.708,0,0,1-.7,2.407c-.017.018-.049.041-.064.056a3.02,3.02,0,0,0-.219.269A3.479,3.479,0,0,0,51,49.753a3.547,3.547,0,0,0-1.622-.887A15.562,15.562,0,0,0,51,42a15.288,15.288,0,0,0-1.289-6.1,21.736,21.736,0,0,0,1.927-4.458,11.8,11.8,0,0,0,.5-5.5l4.74-4.732a.479.479,0,0,1,.341-.144.4.4,0,0,1,.359.15,2.566,2.566,0,0,0,3.541-.007l.463-.473a2.5,2.5,0,0,0-.384-3.85l-2.456-1.63a.63.63,0,0,1-.146-.153l-1.646-2.463a2.5,2.5,0,0,0-3.852-.388l-.47.47a2.509,2.509,0,0,0,0,3.544.49.49,0,0,1,.137.353.507.507,0,0,1-.137.353L47.89,21.706c-3.572-.661-8.531,1.192-11.9,3.678a20.841,20.841,0,0,0-11.8,1.137A13.357,13.357,0,0,0,18,25,12.772,12.772,0,0,0,5,37.5a12.352,12.352,0,0,0,5.68,10.314c-.048.073-.1.143-.144.219A4.469,4.469,0,0,0,10,48a5.006,5.006,0,0,0-5,5,4.874,4.874,0,0,0,.114,1H3a1,1,0,0,0-1,1v3a1,1,0,0,0,1,1H16.279l.772,2.316A1,1,0,0,0,18,62H46a1,1,0,0,0,.949-.684L47.721,59H61a1,1,0,0,0,1-1V55A1,1,0,0,0,61,54Zm-6.167-.417a1.747,1.747,0,0,1-.9.417H52.913a5.056,5.056,0,0,1,.022-.591l0-.021a2.122,2.122,0,0,1,.505-1.245.965.965,0,0,0,.155-.119,3.116,3.116,0,0,1,1.734-.354A2.743,2.743,0,0,1,54.833,53.583ZM23.507,52.547A6.338,6.338,0,0,1,23,50a5.7,5.7,0,0,1,2-3.677,8.189,8.189,0,0,1,1.4,1.74,5.373,5.373,0,0,0-.7.572A7.7,7.7,0,0,0,23.507,52.547ZM25.519,54c-.349-.837.176-2.523,1.589-3.944a3.441,3.441,0,0,1,1-.676,7.185,7.185,0,0,1,3.022-.515,5.712,5.712,0,0,1-1.182,4.018A6.606,6.606,0,0,1,28.464,54Zm6.708-.874a3,3,0,0,0,.549.874H31.629A5.329,5.329,0,0,0,32.227,53.126ZM36.213,54c-.031-.086-.08-.164-.1-.252a1,1,0,0,0-.97-.758A.758.758,0,0,0,35,53a1,1,0,1,1,.539-1.837,1,1,0,0,0,1.26-.18A2.955,2.955,0,0,1,39,50a3,3,0,0,1,2.876,2.2,1,1,0,0,0,1.689.421,2.051,2.051,0,0,1,2.572-.268,1.983,1.983,0,0,1,.847,1.413A2.358,2.358,0,0,1,47,54ZM54,43.29A2.764,2.764,0,0,1,55,45a2.752,2.752,0,0,1-1,1.71A2.764,2.764,0,0,1,53,45,2.752,2.752,0,0,1,54,43.29Zm-3.912,9.8a3.9,3.9,0,0,1-1.245-.137,3.955,3.955,0,0,0-1.155-1.888c-.006-.133-.021-.275-.018-.393a2.733,2.733,0,0,1,1.911.494A2.782,2.782,0,0,1,50.087,53.088Zm3.962-34.713a2.514,2.514,0,0,0,.711-1.755,2.476,2.476,0,0,0-.723-1.767.5.5,0,0,1,0-.716l.47-.47a.506.506,0,0,1,.407-.145.493.493,0,0,1,.364.224l1.659,2.482a2.668,2.668,0,0,0,.68.685l2.466,1.637a.5.5,0,0,1,.225.373.5.5,0,0,1-.152.407l-.451.461a.451.451,0,0,1-.718.012,2.485,2.485,0,0,0-1.77-.736h-.011a2.458,2.458,0,0,0-1.752.735l-4.1,4.087a4.692,4.692,0,0,0-.623-.79,4.567,4.567,0,0,0-.786-.624Zm-7.7,5.172a4.117,4.117,0,0,1,2.974.966c1.128,1.128,1.275,3.444.4,6.352a19.45,19.45,0,0,1-1.244,3.093,7.054,7.054,0,0,0-1.038-3.044l-1.663,1.111a5.628,5.628,0,0,1-.8,6.685A8.978,8.978,0,0,1,39.856,40.9a6.222,6.222,0,0,1-6.926-6.926,9.112,9.112,0,0,1,2.72-5.693C38.3,25.634,43.021,23.547,46.347,23.547ZM7,37.5A10.771,10.771,0,0,1,18,27a11.354,11.354,0,0,1,5.633,1.5,1,1,0,0,0,.894.05A18.7,18.7,0,0,1,32,27a19.216,19.216,0,0,1,2.019.106,11.059,11.059,0,0,0-3.083,6.717,8.4,8.4,0,0,0,2.357,6.717,8.286,8.286,0,0,0,5.96,2.387q.375,0,.757-.03a11.01,11.01,0,0,0,6.435-2.822s.352-.311.518-.477a15.029,15.029,0,0,0,1.4-1.63A13.249,13.249,0,0,1,49,42a13.613,13.613,0,0,1-1.794,6.692,6.417,6.417,0,0,0-.642.087,1,1,0,0,0-.784.783c-.009.042-.045.235-.074.516a4.037,4.037,0,0,0-2.448.326A5,5,0,0,0,39,48a4.9,4.9,0,0,0-3.146,1.129A2.933,2.933,0,0,0,35,49a2.974,2.974,0,0,0-1.879.68,10.659,10.659,0,0,0-.061-1.9,1,1,0,0,0-.847-.845,10.557,10.557,0,0,0-4,.28A10.63,10.63,0,0,0,25.6,44.2a1,1,0,0,0-1.2,0A9.558,9.558,0,0,0,21.19,48.66a3.952,3.952,0,0,0-3.6-.4A4,4,0,0,0,14,46a3.933,3.933,0,0,0-1.745.419A10.381,10.381,0,0,1,7,37.5ZM7,53a3,3,0,0,1,3-3,2.893,2.893,0,0,1,.839.137,1,1,0,0,0,1.252-.68,1.983,1.983,0,0,1,3.891.413,1,1,0,0,0,1.677.664A1.97,1.97,0,0,1,19,50a2,2,0,0,1,0,4H7.2A2.95,2.95,0,0,1,7,53Zm53,4H43v2h2.613l-.334,1H18.721l-.334-1H21V57H4V56H60Z"/><path d="M11.562,22a1,1,0,0,0,2,0,1.509,1.509,0,0,1,.295-.944,3.65,3.65,0,0,0,0-3.947,1.654,1.654,0,0,1,0-1.887,3.451,3.451,0,0,0,.58-1.972,1,1,0,0,0-2,0,1.5,1.5,0,0,1-.294.942,3.641,3.641,0,0,0,0,3.946,1.663,1.663,0,0,1,0,1.888A3.45,3.45,0,0,0,11.562,22Z"/><path d="M22.562,15.75a1,1,0,0,0,2,0,1.509,1.509,0,0,1,.295-.944,3.65,3.65,0,0,0,0-3.947,1.654,1.654,0,0,1,0-1.887A3.451,3.451,0,0,0,25.437,7a1,1,0,0,0-2,0,1.5,1.5,0,0,1-.294.942,3.449,3.449,0,0,0-.581,1.971,3.454,3.454,0,0,0,.581,1.975,1.663,1.663,0,0,1,0,1.888A3.45,3.45,0,0,0,22.562,15.75Z"/><path d="M33.55,19a1,1,0,0,0,2,0,1.572,1.572,0,0,1,.307-.986,3.722,3.722,0,0,0,0-4.031,1.734,1.734,0,0,1,0-1.97A3.524,3.524,0,0,0,36.45,10a1,1,0,0,0-2,0,1.567,1.567,0,0,1-.307.983,3.72,3.72,0,0,0,0,4.03,1.735,1.735,0,0,1,0,1.971A3.535,3.535,0,0,0,33.55,19Z"/><path d="M15.375,31.509l-.75-1.854a9.033,9.033,0,0,0-5.341,6.1l1.936.5A7.028,7.028,0,0,1,15.375,31.509Z"/></g></svg>