<svg xmlns="http://www.w3.org/2000/svg" viewBox="0 0 90.842 90.721">
  <g id="noun_pork_wht" transform="translate(-26.621 -26.641)">
    <path id="Path_25" data-name="Path 25" d="M114.625,90.368A9.679,9.679,0,0,0,102,89.447L96.582,84.03c2.072-3.947,5.818-15.421.988-27.1a34.448,34.448,0,0,0-7.6-11.18L73.983,29.768c-.008-.007-.014-.016-.021-.022l-.018-.016-.191-.191-.01.011a11.689,11.689,0,0,0-8.208-2.909c-7.658,0-17.489,5.073-25.657,13.24-12.4,12.4-16.85,27.368-10.135,34.083a9.594,9.594,0,0,0,1.227,1.018L45.854,89.867A32.293,32.293,0,0,0,69.2,99.845c.86,0,1.687-.034,2.468-.091A34.4,34.4,0,0,0,84.12,96.47l5.43,5.431a9.68,9.68,0,1,0,17.4,4.948,9.673,9.673,0,0,0,7.676-16.481ZM31.761,71.53l-.094.094C26.652,66.14,31.306,52.694,42,42,49.624,34.376,58.643,29.64,65.534,29.64a8.573,8.573,0,0,1,6.289,2.211l.027.026c2.49,2.5,2.91,6.889,1.174,12.358-1.842,5.812-5.862,12.017-11.318,17.473C54.081,69.334,45.063,74.07,38.173,74.07a9.361,9.361,0,0,1-5.24-1.368ZM83.393,93.448c-.752.432-19.526,10.192-35.418-5.7l-10.71-10.71c.3.017.6.035.907.035h0c7.657,0,17.486-5.073,25.653-13.241C69.617,58.04,73.9,51.4,75.885,45.142a22.055,22.055,0,0,0,1.148-8.082L87.846,47.872a31.47,31.47,0,0,1,6.953,10.2c5.383,13.018-.91,24.634-1.248,25.213Zm29.113,8.489a6.7,6.7,0,0,1-7,1.551,1.5,1.5,0,0,0-1.922,1.919,6.716,6.716,0,0,1-1.551,7,6.682,6.682,0,0,1-9.485-9.413c.02-.016.068-.061.086-.077a1.5,1.5,0,0,0,.024-2.144L86.486,94.6l8.209-8.209,6.176,6.176a1.545,1.545,0,0,0,1.094.4,1.615,1.615,0,0,0,1.094-.476,6.68,6.68,0,0,1,9.447,9.447Z" fill="#fff"/>
    <path id="Path_26" data-name="Path 26" d="M58.878,58.879c4.938-4.937,8.705-10.715,10.334-15.853,1.226-3.865,1.15-6.979-.2-8.331a5.052,5.052,0,0,0-3.479-1.056c-4.736,0-12.977,3.46-20.707,11.189C38.848,50.807,36.1,56.207,34.84,59.683c-1.552,4.294-1.608,7.868-.147,9.328a5.047,5.047,0,0,0,3.481,1.058C42.909,70.07,51.148,66.609,58.878,58.879ZM36.84,66.919h0C35.9,65.566,37.2,56.7,46.948,46.95c7.085-7.084,14.6-10.311,18.586-10.311a3.646,3.646,0,0,1,1.351.189c.173.376.487,2.072-.532,5.291-1.489,4.694-4.986,10.029-9.6,14.638-7.085,7.085-14.6,10.313-18.583,10.313h0A5.12,5.12,0,0,1,36.84,66.919Z" fill="#fff"/>
    <path id="Path_27" data-name="Path 27" d="M46.618,59.75c2.444,0,5.811-1.787,8.576-4.553a16.925,16.925,0,0,0,4.182-6.44c.585-1.842.474-3.345-.3-4.122a2.7,2.7,0,0,0-1.985-.675c-2.445,0-5.813,1.786-8.578,4.552-4.255,4.256-5.458,8.982-3.877,10.563A2.7,2.7,0,0,0,46.618,59.75Zm4.012-9.117a12.2,12.2,0,0,1,6.091-3.645,5.365,5.365,0,0,1-.2.862,13.9,13.9,0,0,1-3.443,5.226,12.163,12.163,0,0,1-6.1,3.646C47.14,55.6,48.034,53.229,50.63,50.633Z" fill="#fff"/>
  </g>
</svg>
