<svg xmlns="http://www.w3.org/2000/svg" viewBox="0 0 500 625" x="0px" y="0px"><title>pasta-co</title><path d="M83.09131,54.02148c5.2456.043,10.1582.06543,15.01807.06543,3.46423,0,6.90472-.012,10.415-.03405V66.92639c-8.028.23621-16.38671.20105-24.9541-.1383a10,10,0,1,0-.791,19.98437c5.3208.21094,10.57812.31641,15.73779.31641,3.38824,0,6.71417-.06262,10.00732-.15357v14.30738c-8.24853-.10181-16.78338-.08374-25.47705.06982a9.99981,9.99981,0,0,0,.17432,19.99805c.06006,0,.12109-.001.18115-.002,8.58106-.15271,16.99738-.16919,25.12158-.06506v15.39783c-7.93274.11108-16.75921.098-25.18261-.0437a10.00041,10.00041,0,0,0-.334,19.998c4.81055.08008,9.75391.12012,14.59815.12012,3.73584,0,7.40844-.02441,10.91845-.07227v134.998a10,10,0,1,0,20,0V24.26367a10,10,0,1,0-20,0V34.053c-8.38238.05517-16.33953.04492-25.26611-.0315h-.08545a10.00018,10.00018,0,0,0-.08154,20Z"/><path d="M143.63379,261.79688a10.00018,10.00018,0,0,0,10-10V24.26367a10,10,0,1,0-20,0V251.79688A10.00018,10.00018,0,0,0,143.63379,261.79688Z"/><path d="M168.74316,172.13672a10.00018,10.00018,0,0,0,10-10V24.26367a10,10,0,1,0-20,0V162.13672A10.00018,10.00018,0,0,0,168.74316,172.13672Z"/><path d="M193.85254,172.13672a10.00018,10.00018,0,0,0,10-10V24.26367a10,10,0,1,0-20,0V162.13672A10.00018,10.00018,0,0,0,193.85254,172.13672Z"/><path d="M473.2002,72.69727c-.103,0-.20606.00195-.30909.00488L282.98883,78.57776c-.02753-.475-.05444-.94641-.08258-1.42542-.27539-4.68261-.53516-9.10546-.69336-13.082a9.99578,9.99578,0,0,0-.3042-2.08105c-5.967-23.32764-32.066-29.7489-52.94726-28.176V24.26367a10,10,0,1,0-20,0V163.792a10,10,0,0,0,20,0V156.9458c15.99731-.01416,35.715-.18481,47.5747-16.85107,5.13013-6.37622,7.03638-16.68848,7.37738-30.21863l188.8653,7.96765q.21021.00879.42139.00879c13.46826,0,24.42578-10.12793,24.42578-22.57715S486.66846,72.69727,473.2002,72.69727ZM228.96143,87.05688c11.49713-.03564,23.03387-.10107,34.4627-.196.255,4.8125.46271,9.70605.5423,14.41577-11.55048-.04321-23.267-.07324-35.005-.0896Zm.94189-33.262c10.38428-.875,28.584.76953,32.376,12.2832.01123.25916.02539.52967.03729.79139-11.06513.09082-22.22949.15258-33.35516.18713V53.82617C229.273,53.8291,229.58673,53.82141,229.90332,53.79492Zm30.46045,74.52832c-5.50659,7.92273-16.0221,8.59607-31.40234,8.62134V121.187c11.38818.01611,22.75775.04444,33.97332.08594-.85168,4.88574-1.91351,6.20508-1.98016,6.28369Q260.64038,127.92577,260.36377,128.32324Zm213-30.47265-70.47363-2.97266,70.42968-2.17969c2.67481.04785,4.30616,1.68164,4.30616,2.57715C477.626,96.166,476.01221,97.78613,473.36377,97.85059Z"/><path d="M410.698,400.90479a10.00523,10.00523,0,0,0,.25464-2.21534c0-49.44238-43.457-89.666-96.87256-89.666a104.39005,104.39005,0,0,0-20.24707,1.97607c-5.185-32.46-35.20435-57.439-71.354-57.439-39.03137,0-72.2973,27.45935-75.63336,61.11511-15.86743,4.00647-29.41784,12.41125-38.39935,24.1593a71.63891,71.63891,0,0,0-18.94483-2.5459c-37.02148,0-67.14111,27.99317-67.14111,62.40039a9.95674,9.95674,0,0,0,.6181,3.43409,33.25081,33.25081,0,0,0-19.39056,30.188v.41309A33.25072,33.25072,0,0,0,36.80078,465.9375h8.23163a26.84026,26.84026,0,0,0,26.804,26.42188H364.88086a26.84026,26.84026,0,0,0,26.804-26.42188H399.917a33.2503,33.2503,0,0,0,33.2124-33.21289v-.41309A33.26386,33.26386,0,0,0,410.698,400.90479Zm-19.74536-2.21534c0,.13819.01513.27246.02069.40918H381.2c.00556-.13672.02069-.271.02069-.40918,0-34.40722-30.11914-62.40039-67.14062-62.40039s-67.14063,27.99317-67.14063,62.40039c0,.13819.01514.27246.02069.40918h-9.77282c.00555-.13672.02069-.271.02069-.40918,0-38.41406,34.48486-69.666,76.87207-69.666C356.46777,329.02344,390.95264,360.27539,390.95264,398.68945Zm-76.87256-35.13476c-20.62744,0-37.40869,15.76172-37.40869,35.13476,0,.13819.01513.27246.02069.40918h-9.77332c.00556-.13672.02069-.271.02069-.40918,0-23.37988,21.147-42.40039,47.14063-42.40039s47.14062,19.02051,47.14062,42.40039c0,.13819.01514.27246.02069.40918h-9.77282c.00555-.13672.02069-.271.02069-.40918C351.48926,379.31641,334.70752,363.55469,314.08008,363.55469ZM331.51,399.09863H296.6507c.00555-.13672.02069-.271.02069-.40918,0-8.3457,7.80957-15.13476,17.40869-15.13476,9.59961,0,17.40918,6.78906,17.40918,15.13476C331.48926,398.82764,331.50439,398.96191,331.51,399.09863ZM149.926,371.5061c5.42444-3.7445,13.11683-4.65063,19.23322-4.65063,6.73,0,17.62158,4.25195,25.417,12.37891,5.59967,5.83837,8.61969,12.50927,9.00946,19.86425H156.6214c.00555-.13672.02069-.271.02069-.40918A58.4369,58.4369,0,0,0,149.926,371.5061Zm47.17579-54.37536c1.50787-5.99964,6.99627-13.83386,25.37725-13.83386a29.15305,29.15305,0,0,1,20.77784,8.85644,24.335,24.335,0,0,1,7.1831,17.68555,10.03527,10.03527,0,0,0,.051,1.26391,93.53619,93.53619,0,0,0-14.363,14.41626C226.876,332.90723,212.90387,322.821,197.10175,317.13074ZM183.05859,287.666A62.29239,62.29239,0,0,1,222.479,273.56055c27.23261,0,49.64277,19.08862,51.94342,43.32617q-2.61492,1.0904-5.14392,2.32165A45.10289,45.10289,0,0,0,257.605,298.21973a49.26444,49.26444,0,0,0-35.126-14.92285c-12.51953,0-23.395,3.10644-31.45166,8.98242A34.44181,34.44181,0,0,0,177.57892,312.543a80.48122,80.48122,0,0,0-9.01984-.5166c-.364,0-.72522.00988-1.08807.01416C169.49615,302.98877,174.84729,294.53662,183.05859,287.666Zm-14.49951,44.36035c23.067,0,47.23383,14.39843,55.86591,32.71631a84.07885,84.07885,0,0,0-5.1753,15.60131,53.61011,53.61011,0,0,0-10.23992-14.95434c-10.63379-11.08594-26.64844-18.53418-39.85059-18.53418-12.79065,0-23.38245,2.97217-31.25555,8.65588a66.62247,66.62247,0,0,0-10.36646-8.20495C136.99487,337.65,151.82086,332.02637,168.55908,332.02637ZM89.50146,356.28906c25.99366,0,47.14063,19.02051,47.14063,42.40039,0,.13819.01514.27246.02069.40918h-9.77331c.00555-.13672.02069-.271.02069-.40918,0-19.373-16.78125-35.13476-37.4087-35.13476s-37.40917,15.76172-37.40917,35.13476c0,.13819.01513.27246.02069.40918H42.33966c.00555-.13672.02069-.271.02069-.40918C42.36035,375.30957,63.50781,356.28906,89.50146,356.28906Zm17.42939,42.80957H72.07159c.00556-.13672.0207-.271.0207-.40918,0-8.3457,7.80957-15.13476,17.40917-15.13476,9.59913,0,17.4087,6.78906,17.4087,15.13476C106.91016,398.82764,106.92529,398.96191,106.93085,399.09863Zm257.95,73.26075H71.83643a6.90706,6.90706,0,0,1-6.7934-6.42188H371.67426A6.90708,6.90708,0,0,1,364.88086,472.35938Zm48.24853-39.63477A13.228,13.228,0,0,1,399.917,445.9375H36.80078a13.22813,13.22813,0,0,1-13.21289-13.21289v-.41309a13.22813,13.22813,0,0,1,13.21289-13.21289H399.917a13.228,13.228,0,0,1,13.2124,13.21289Z"/></svg>