<svg xmlns="http://www.w3.org/2000/svg" xmlns:xlink="http://www.w3.org/1999/xlink" version="1.1" x="0px" y="0px" viewBox="22.021 48.638 467.974 518.8199999999999" enable-background="new 22.021 48.638 467.974 415.056" xml:space="preserve"><g><path d="M483.276,310.147c0.054-0.205,0.098-0.412,0.151-0.617c0.472-1.819,0.917-3.644,1.338-5.475   c0.041-0.18,0.084-0.359,0.125-0.539c1.442-6.352,2.579-12.773,3.41-19.254c0.004-0.028,0.007-0.056,0.011-0.084   c0.541-4.236,0.953-8.497,1.232-12.78c0.023-0.345,0.04-0.69,0.061-1.034c0.101-1.677,0.181-3.357,0.241-5.04   c0.018-0.499,0.039-0.998,0.053-1.498c0.058-2.013,0.096-4.029,0.096-6.051c0-2.099-0.037-4.196-0.101-6.292   c-0.022-0.734-0.063-1.466-0.093-2.199c-0.055-1.357-0.113-2.713-0.195-4.068c-0.053-0.883-0.122-1.763-0.187-2.644   c-0.088-1.201-0.18-2.402-0.289-3.601c-0.085-0.94-0.181-1.878-0.279-2.817c-0.119-1.142-0.247-2.283-0.385-3.423   c-0.116-0.956-0.237-1.91-0.366-2.864c-0.153-1.131-0.32-2.26-0.492-3.388c-0.144-0.941-0.286-1.882-0.442-2.82   c-0.195-1.169-0.409-2.334-0.625-3.499c-0.163-0.884-0.319-1.77-0.493-2.652c-0.265-1.336-0.556-2.664-0.847-3.993   c-0.154-0.704-0.294-1.411-0.456-2.113c-0.007-0.029-0.012-0.058-0.019-0.087c-0.002-0.01-0.007-0.019-0.01-0.029   c-0.47-2.034-0.966-4.062-1.498-6.079l-1.159-4.217c-0.012-0.039-0.022-0.078-0.035-0.116l-0.163-0.517   c-4.606-15.82-11.156-31.144-19.472-45.552c-3.066-5.286-6.347-10.42-9.728-15.224l-1.148-1.632   c-0.08-0.112-0.164-0.22-0.244-0.332c-0.022-0.032-0.034-0.067-0.057-0.098c-0.847-1.174-1.71-2.334-2.578-3.488   c-0.03-0.04-0.059-0.081-0.089-0.121c-0.827-1.096-1.668-2.179-2.515-3.257c-0.196-0.25-0.388-0.505-0.586-0.754   c-0.672-0.848-1.358-1.683-2.043-2.519c-0.381-0.466-0.757-0.938-1.142-1.4c-0.496-0.595-1.004-1.179-1.506-1.769   c-0.585-0.687-1.166-1.379-1.76-2.057c-0.293-0.334-0.593-0.661-0.888-0.994c-0.814-0.919-1.63-1.837-2.46-2.74   c-0.056-0.061-0.114-0.12-0.17-0.181c-12.16-13.205-25.966-24.734-41.257-34.419c0,0-0.001,0-0.001-0.001   c-1.49-0.946-2.995-1.865-4.506-2.771c-0.292-0.175-0.584-0.351-0.877-0.525c-1.488-0.882-2.984-1.746-4.491-2.588   c-0.226-0.126-0.454-0.25-0.681-0.375c-1.414-0.784-2.836-1.55-4.266-2.299c-0.211-0.111-0.421-0.224-0.633-0.334   c-1.504-0.781-3.017-1.539-4.538-2.281c-0.379-0.185-0.758-0.368-1.138-0.55c-1.493-0.717-2.992-1.423-4.501-2.103   c-0.304-0.137-0.611-0.268-0.916-0.403c-1.224-0.545-2.454-1.077-3.689-1.597c-0.547-0.231-1.093-0.462-1.641-0.688   c-1.343-0.552-2.69-1.091-4.044-1.615c-0.677-0.262-1.358-0.516-2.038-0.771c-0.879-0.329-1.761-0.652-2.645-0.969   c-0.522-0.188-1.04-0.389-1.564-0.573c-0.036-0.012-0.072-0.014-0.108-0.026c-21.708-7.581-44.668-11.499-68.013-11.499   c-3.985,0-7.961,0.133-11.927,0.363c-0.078,0-0.152-0.014-0.231-0.009c-0.267,0.016-0.533,0.043-0.8,0.059   c-0.626,0.039-1.251,0.094-1.877,0.139c-1.623,0.116-3.244,0.239-4.862,0.394c-0.452,0.043-0.902,0.098-1.354,0.144   c-1.76,0.18-3.518,0.373-5.271,0.598c-0.414,0.053-0.826,0.116-1.24,0.172c-1.763,0.237-3.522,0.489-5.277,0.771   c-0.478,0.077-0.954,0.165-1.431,0.245c-1.666,0.28-3.33,0.572-4.988,0.893c-0.607,0.117-1.21,0.248-1.815,0.37   c-1.509,0.307-3.017,0.62-4.518,0.96c-0.766,0.173-1.528,0.362-2.292,0.543c-1.324,0.316-2.647,0.634-3.964,0.976   c-0.934,0.242-1.863,0.501-2.794,0.756c-1.132,0.311-2.264,0.621-3.39,0.951c-1.093,0.32-2.179,0.658-3.266,0.996   c-0.954,0.297-1.908,0.591-2.858,0.902c-1.224,0.4-2.442,0.82-3.658,1.243c-0.806,0.28-1.612,0.558-2.414,0.848   c-1.319,0.477-2.631,0.975-3.94,1.479c-0.697,0.268-1.394,0.534-2.088,0.81c-1.373,0.546-2.737,1.112-4.097,1.687   c-0.632,0.267-1.264,0.532-1.893,0.806c-1.38,0.6-2.751,1.219-4.118,1.85c-0.616,0.284-1.232,0.567-1.845,0.857   c-1.338,0.633-2.667,1.285-3.991,1.947c-0.652,0.326-1.303,0.653-1.952,0.986c-1.245,0.64-2.483,1.296-3.716,1.962   c-0.74,0.399-1.478,0.801-2.213,1.21c-0.522,0.29-1.052,0.564-1.571,0.859c-0.093,0.053-0.168,0.122-0.255,0.181   c-2.833,1.613-5.641,3.273-8.397,5.023c-1.864,1.184-2.416,3.653-1.234,5.518l104.251,164.434H106.258H81.852c-2.209,0-4,1.791-4,4   c0,1.748,0.03,3.494,0.074,5.238c0.01,0.392,0.02,0.785,0.032,1.177c0.053,1.709,0.122,3.417,0.217,5.122   c0.015,0.262,0.034,0.522,0.049,0.784c0.089,1.503,0.196,3.004,0.318,4.503c0.033,0.411,0.064,0.823,0.1,1.234   c0.141,1.619,0.301,3.236,0.48,4.85c0.055,0.499,0.117,0.996,0.176,1.494c0.147,1.238,0.305,2.474,0.473,3.708   c0.072,0.528,0.139,1.057,0.216,1.585c0.21,1.451,0.439,2.899,0.68,4.345c0.123,0.742,0.253,1.483,0.385,2.224   c0.164,0.921,0.336,1.841,0.513,2.76c0.234,1.219,0.479,2.434,0.735,3.647c0.168,0.797,0.337,1.594,0.515,2.388   c0.104,0.464,0.194,0.932,0.301,1.396c0.014,0.063,0.043,0.117,0.061,0.179c0.951,4.103,2.02,8.179,3.223,12.219l0.616,2.035   c4.525,14.573,10.728,28.729,18.438,42.076c2.816,4.873,5.847,9.659,9.009,14.229c0.659,0.951,1.336,1.886,2.01,2.824   c0.049,0.079,0.084,0.164,0.139,0.241c1.252,1.736,2.537,3.442,3.837,5.134c0.139,0.181,0.28,0.36,0.42,0.541   c0.871,1.126,1.75,2.242,2.642,3.348c0.248,0.307,0.498,0.612,0.747,0.917c0.796,0.975,1.598,1.943,2.41,2.902   c0.33,0.39,0.662,0.776,0.995,1.163c0.747,0.868,1.499,1.731,2.26,2.586c0.392,0.441,0.786,0.879,1.181,1.316   c0.72,0.796,1.445,1.586,2.177,2.369c0.435,0.466,0.871,0.93,1.31,1.391c0.71,0.747,1.427,1.488,2.148,2.224   c0.466,0.476,0.933,0.95,1.404,1.421c0.714,0.714,1.435,1.422,2.159,2.125c0.484,0.47,0.967,0.94,1.456,1.405   c0.734,0.699,1.475,1.39,2.22,2.078c0.488,0.451,0.975,0.904,1.467,1.35c0.766,0.695,1.541,1.38,2.317,2.063   c0.482,0.424,0.962,0.85,1.449,1.27c0.811,0.7,1.631,1.388,2.453,2.076c0.464,0.388,0.925,0.779,1.393,1.163   c0.87,0.715,1.751,1.417,2.634,2.118c0.433,0.344,0.862,0.692,1.297,1.032c0.947,0.74,1.905,1.465,2.866,2.189   c0.385,0.29,0.765,0.585,1.152,0.872c1.044,0.775,2.1,1.535,3.16,2.291c0.318,0.227,0.631,0.46,0.951,0.685   c1.18,0.832,2.372,1.648,3.571,2.457c0.212,0.143,0.42,0.291,0.633,0.434c1.416,0.947,2.844,1.88,4.286,2.795   c0.002,0.001,0.003,0.003,0.005,0.004c1.579,1.012,3.181,1.979,4.527,2.786c0.12,0.072,0.245,0.146,0.366,0.218   c0.075,0.045,0.15,0.09,0.226,0.135c1.72,1.028,3.547,2.08,5.615,3.229l2.083,1.1c1.133,0.609,2.267,1.214,3.41,1.801l0.764,0.404   l1.371,0.668c1.212,0.605,2.428,1.2,3.652,1.78l1.382,0.674c2.088,0.961,4.313,1.977,6.527,2.899l1.609,0.674   c0.077,0.032,0.154,0.062,0.233,0.089c0.819,0.339,1.657,0.655,2.484,0.985c0.865,0.343,1.726,0.697,2.595,1.029   c2.148,0.823,4.31,1.621,6.482,2.372c1.519,0.514,3.317,1.115,5.132,1.678c0.061,0.02,0.123,0.037,0.186,0.053   c19.828,6.215,40.578,9.366,61.676,9.366h1.854l3.787-0.038c0.179-0.003,0.355-0.02,0.529-0.047l5.037-0.178   c0.053-0.001,0.105-0.003,0.158-0.007l1.738-0.106c0.059-0.002,0.118-0.006,0.177-0.011l3.565-0.254   c0.212-0.013,0.419-0.042,0.62-0.087l3.197-0.263l3.583-0.407c0.046-0.004,0.092-0.009,0.137-0.015l1.241-0.177   c2.31-0.288,4.613-0.621,6.909-0.988l2.678-0.383c0.054-0.008,0.108-0.017,0.162-0.027l3.391-0.646   c0.059-0.009,0.117-0.019,0.176-0.03l5.183-1.068c0.061-0.01,0.121-0.021,0.181-0.034l1.818-0.391l8.827-2.215l6.7-1.989   c0.066-0.017,0.133-0.035,0.198-0.056l1.685-0.521c0.032-0.01,0.064-0.021,0.097-0.031l1.477-0.499   c0.07-0.02,0.14-0.04,0.208-0.063l4.871-1.72c0.072-0.021,0.145-0.046,0.217-0.071l6.644-2.536   c0.032-0.013,0.065-0.026,0.098-0.039l1.394-0.583c0.081-0.027,0.161-0.059,0.241-0.092l3.282-1.377l4.359-2.008   c0.492-0.227,0.986-0.449,1.476-0.68l2.209-1.017c0.035-0.017,0.069-0.033,0.104-0.051l1.333-0.675   c0.081-0.034,0.161-0.071,0.239-0.111l3.192-1.614l4.375-2.354c0.107-0.048,0.212-0.102,0.314-0.16l2.805-1.601   c0.083-0.04,0.166-0.084,0.247-0.131l1.56-0.896l6.017-3.679c0.012-0.007,0.021-0.018,0.033-0.025   c1.535-0.975,3.053-1.971,4.558-2.982c0.416-0.279,0.826-0.567,1.239-0.85c1.146-0.782,2.285-1.572,3.414-2.375   c0.374-0.266,0.745-0.537,1.117-0.806c1.226-0.885,2.441-1.782,3.645-2.692c0.235-0.178,0.471-0.356,0.706-0.535   c7.67-5.847,14.894-12.204,21.651-19.049c0.002-0.002,0.004-0.003,0.005-0.005c0,0,0-0.001,0.001-0.001   c7.607-7.707,14.63-16.021,21.015-24.932l1.185-1.703c3.315-4.716,6.545-9.771,9.607-15.041   c4.756-8.252,8.908-16.796,12.472-25.543c0.09-0.157,0.185-0.311,0.255-0.484c2.802-6.947,5.198-14.014,7.213-21.175   c0.03-0.107,0.065-0.213,0.095-0.321l0.012-0.035c0.02-0.06,0.037-0.12,0.054-0.181l0.211-0.78   c0.143-0.522,0.285-1.044,0.424-1.567L483.276,310.147z M455.464,158.814c7.991,13.846,14.288,28.576,18.74,43.864l1.278,4.572   c0.965,3.657,1.818,7.346,2.57,11.059c0.153,0.754,0.287,1.512,0.431,2.268c0.199,1.046,0.399,2.092,0.581,3.142   c0.145,0.837,0.276,1.677,0.411,2.517c0.157,0.978,0.311,1.957,0.453,2.938c0.124,0.86,0.24,1.721,0.353,2.583   c0.128,0.978,0.25,1.957,0.364,2.938c0.099,0.851,0.194,1.703,0.282,2.556c0.105,1.021,0.199,2.043,0.288,3.066   c0.071,0.81,0.144,1.619,0.205,2.43c0.086,1.15,0.155,2.302,0.222,3.454c0.04,0.683,0.088,1.366,0.12,2.05   c0.087,1.839,0.155,3.681,0.191,5.525h-15.613c0.521-3.502,0.775-6.805,0.775-9.998c0-16.609-7.194-26.521-14.15-36.105   c-6.225-8.576-12.661-17.443-14.842-31.997c-5.729-38.346-13.859-41.456-27.736-43.651c-8.258-1.307-17.571-2.781-30.245-18.536   l1.811-2.856c0.001-0.002,0.003-0.003,0.004-0.005l2.51-3.958l8.822-13.913c13.544,8.971,25.826,19.475,36.722,31.375   c0.206,0.225,0.416,0.445,0.621,0.671c0.606,0.668,1.2,1.348,1.797,2.025c0.413,0.468,0.831,0.931,1.24,1.403   c0.402,0.464,0.795,0.938,1.193,1.407c0.593,0.699,1.19,1.395,1.774,2.102c0.226,0.273,0.446,0.553,0.67,0.827   c0.745,0.913,1.489,1.827,2.22,2.754c0.082,0.104,0.161,0.21,0.243,0.314c1.795,2.288,3.547,4.618,5.251,6.994l1.073,1.526   C449.365,148.802,452.52,153.737,455.464,158.814z M448.679,307.207c1.26,3.28,2.254,5.87,2.254,8.504   c0,4.628-2.816,11.601-23.706,28.222c-13.067,10.375-18.162,21.778-22.657,31.839c-4.961,11.102-9.291,20.787-23.385,27.964   l-89.889-141.787l-0.11-0.174h160.208c-4.477,10.273-6.671,19.201-6.671,27.147C444.723,296.901,446.916,302.616,448.679,307.207z    M109.593,261.776h167.049l-76.085,120.036l-8.361,13.19c-13.846-16.219-25.097-18.011-33.488-19.339   c-10.273-1.625-15.933-2.521-21.075-36.932c-2.47-16.485-9.809-26.593-16.283-35.512c-6.782-9.341-12.639-17.408-12.639-31.439   C108.711,268.684,109.012,265.328,109.593,261.776z M283.914,250.306l-87.989-138.784c32.947-1.876,41.849-12.866,48.46-21.032   c4.041-4.991,6.267-7.741,12.996-7.741c6.271,0,15.935,2.601,29.539,7.949c8.051,3.171,15.861,4.648,24.58,4.648   c5.078,0,9.796-0.491,14.358-0.967c4.241-0.441,8.248-0.859,12.268-0.859c8.434,0,18.909,1.677,32.657,14.111   c0.793,0.719,1.572,1.362,2.347,1.965l-1.258,1.984c-0.018,0.028-0.029,0.059-0.046,0.087l-31.421,49.552L283.914,250.306z    M457.658,253.775H291.187l84.459-133.193c13.849,16.223,25.102,18.015,33.494,19.343c10.273,1.625,15.933,2.521,21.074,36.934   c2.47,16.487,9.807,26.595,16.279,35.512c6.774,9.333,12.625,17.394,12.625,31.406c0,3.095-0.301,6.45-0.882,9.998H457.658z    M202.293,77.423c0.105-0.047,0.208-0.098,0.313-0.146c1.465-0.659,2.944-1.288,4.424-1.911c0.425-0.179,0.847-0.366,1.273-0.542   c1.3-0.536,2.611-1.046,3.923-1.555c0.63-0.244,1.257-0.495,1.889-0.733c1.165-0.438,2.338-0.854,3.511-1.27   c0.805-0.285,1.609-0.575,2.418-0.849c1.039-0.353,2.083-0.689,3.128-1.025c0.968-0.311,1.937-0.622,2.91-0.918   c0.917-0.28,1.839-0.547,2.76-0.813c1.124-0.324,2.25-0.644,3.38-0.948c0.798-0.215,1.598-0.423,2.398-0.628   c1.277-0.327,2.556-0.644,3.839-0.945c0.68-0.16,1.362-0.317,2.044-0.47c1.42-0.318,2.843-0.62,4.27-0.907   c0.572-0.115,1.144-0.23,1.717-0.34c1.545-0.296,3.095-0.573,4.647-0.832c0.48-0.08,0.959-0.163,1.44-0.24   c1.64-0.262,3.285-0.5,4.932-0.721c0.419-0.056,0.838-0.117,1.258-0.17c1.682-0.215,3.367-0.402,5.055-0.573   c0.41-0.042,0.819-0.089,1.229-0.128c1.629-0.155,3.261-0.281,4.895-0.396c0.497-0.035,0.993-0.079,1.49-0.11   c4.152-0.262,8.318-0.399,12.492-0.399c23.4,0,46.395,4.1,68.043,12.012c0.455,0.167,0.912,0.328,1.366,0.498   c0.756,0.283,1.509,0.574,2.261,0.866c0.657,0.255,1.313,0.515,1.968,0.777c0.671,0.268,1.342,0.535,2.009,0.811   c1.163,0.481,2.32,0.974,3.474,1.478c0.529,0.231,1.057,0.466,1.584,0.702c1.005,0.449,2.008,0.906,3.006,1.372   c0.332,0.155,0.666,0.305,0.997,0.462c1.305,0.619,2.602,1.255,3.894,1.902c0.364,0.182,0.727,0.367,1.09,0.551   c1.261,0.642,2.517,1.293,3.764,1.962c0.089,0.048,0.178,0.093,0.267,0.141c1.342,0.722,2.674,1.465,4,2.219   c0.306,0.174,0.611,0.349,0.916,0.524c1.33,0.765,2.654,1.541,3.967,2.337l-9.099,14.343c-0.421-0.345-0.847-0.714-1.281-1.109   c-12.541-11.342-23.914-16.182-38.028-16.182c-4.436,0-8.838,0.458-13.097,0.902c-4.359,0.454-8.867,0.924-13.529,0.924   c-7.683,0-14.562-1.3-21.65-4.093c-14.759-5.802-25.076-8.505-32.469-8.505c-10.545,0-14.952,5.443-19.213,10.707   c-6.266,7.74-14.048,17.326-47.188,18.265l-9.669-15.25C188.082,84.362,195.093,80.677,202.293,77.423z M112.381,356.737   c-7.412-12.831-13.375-26.439-17.73-40.467l-0.58-1.916c-1.863-6.257-3.406-12.6-4.638-19.004c-0.054-0.282-0.108-0.563-0.16-0.845   c-0.356-1.897-0.685-3.799-0.986-5.706c-0.031-0.198-0.066-0.395-0.097-0.592c-0.327-2.112-0.621-4.23-0.879-6.353   c-0.018-0.151-0.032-0.303-0.05-0.455c-0.22-1.842-0.409-3.688-0.577-5.537c-0.053-0.585-0.1-1.171-0.148-1.757   c-0.122-1.492-0.227-2.987-0.315-4.483c-0.035-0.593-0.074-1.186-0.104-1.779c-0.102-2.019-0.182-4.041-0.223-6.066h15.595   c-0.521,3.506-0.776,6.81-0.776,10.004c0,16.629,7.201,26.548,14.165,36.14c6.227,8.576,12.665,17.445,14.845,31.995   c5.73,38.346,13.86,41.455,27.737,43.65c8.256,1.306,17.569,2.781,30.241,18.532l-13.143,20.735   c-1.301-0.862-2.59-1.739-3.867-2.629c-0.208-0.145-0.411-0.295-0.618-0.44c-1.059-0.744-2.114-1.493-3.156-2.256   c-0.317-0.232-0.629-0.471-0.944-0.705c-0.922-0.683-1.843-1.369-2.752-2.067c-0.375-0.288-0.743-0.583-1.116-0.873   c-0.838-0.653-1.675-1.308-2.502-1.974c-0.411-0.331-0.816-0.669-1.225-1.004c-0.777-0.636-1.553-1.273-2.319-1.92   c-0.433-0.366-0.861-0.738-1.291-1.108c-0.731-0.628-1.46-1.257-2.181-1.896c-0.442-0.391-0.878-0.788-1.317-1.182   c-0.701-0.631-1.399-1.265-2.09-1.906c-0.439-0.407-0.873-0.818-1.308-1.229c-0.683-0.645-1.362-1.292-2.036-1.947   c-0.424-0.412-0.845-0.829-1.266-1.245c-0.678-0.671-1.352-1.345-2.019-2.026c-0.399-0.406-0.795-0.815-1.19-1.225   c-0.686-0.711-1.367-1.427-2.042-2.149c-0.361-0.386-0.721-0.774-1.08-1.163c-0.709-0.77-1.413-1.547-2.11-2.329   c-0.308-0.346-0.616-0.692-0.922-1.039c-0.753-0.857-1.499-1.721-2.238-2.591c-0.237-0.279-0.474-0.557-0.709-0.837   c-0.822-0.979-1.635-1.967-2.439-2.964c-0.141-0.175-0.284-0.349-0.425-0.525c-0.927-1.157-1.844-2.324-2.747-3.503   c-0.011-0.015-0.023-0.029-0.034-0.044c-1.911-2.498-3.768-5.047-5.57-7.645C118.002,366.024,115.089,361.423,112.381,356.737z    M289.427,455.622c-0.176,0.004-0.35,0.02-0.521,0.046l-4.975,0.026c-20.349,0-40.353-3.047-59.458-9.055   c-0.069-0.022-0.139-0.042-0.21-0.06c-1.67-0.521-3.339-1.079-4.737-1.552c-0.368-0.127-0.735-0.271-1.104-0.401   c-0.011-0.004-0.02-0.011-0.031-0.014c-1.932-0.676-3.851-1.393-5.763-2.13c-1.415-0.548-2.828-1.101-4.221-1.678   c-4.122-1.7-8.185-3.549-12.187-5.526l-7.184-3.732c-2.557-1.396-5.09-2.839-7.583-4.348c-0.047-0.029-0.091-0.055-0.139-0.083   l14.66-23.106c0.031-0.048,0.051-0.101,0.08-0.15l87.861-138.612l88.006,138.818c-32.942,1.861-41.847,12.851-48.461,21.016   c-4.04,4.988-6.267,7.736-12.985,7.736c-6.27,0-15.934-2.605-29.547-7.966c-8.034-3.156-15.827-4.626-24.525-4.626   c-5.086,0-9.811,0.493-14.38,0.97c-4.247,0.443-8.257,0.862-12.282,0.862c-3.813,0-7.244-0.393-10.488-1.201   c-2.142-0.535-4.315,0.77-4.849,2.913c-0.534,2.145,0.771,4.314,2.914,4.849c3.885,0.969,7.949,1.439,12.423,1.439   c4.44,0,8.849-0.46,13.112-0.905c4.365-0.456,8.88-0.927,13.549-0.927c7.665,0,14.528,1.294,21.597,4.07   c14.764,5.813,25.083,8.521,32.476,8.521c10.534,0,14.94-5.44,19.202-10.701c6.269-7.74,14.04-17.332,47.188-18.254l9.669,15.251   l-0.347,0.206c-1.481,0.893-2.974,1.766-4.477,2.618l-0.557,0.318c-0.985,0.554-1.983,1.083-2.977,1.621l-4.102,2.156   c-1.007,0.514-2.012,1.034-3.028,1.53l-1.025,0.493c-16.001,7.708-33.006,13.249-50.493,16.436l-0.214,0.037   c-5.77,1.045-11.592,1.833-17.447,2.361l-0.565,0.05c-1.91,0.167-3.822,0.31-5.738,0.421c-0.114,0.007-0.22,0.037-0.332,0.053   l-0.347,0.021c-0.005,0-0.011,0-0.017,0.001L289.427,455.622z M455.472,356.765c-2.94,5.058-6.045,9.919-9.239,14.463l-1.166,1.676   c-6.098,8.512-12.805,16.47-20.078,23.846c-0.029,0.028-0.064,0.047-0.092,0.076c-5.978,6.051-12.347,11.717-19.044,16.952   c-0.057,0.044-0.113,0.089-0.17,0.133c-1.218,0.95-2.45,1.883-3.69,2.805c-0.155,0.115-0.309,0.232-0.465,0.347   c-1.16,0.857-2.332,1.697-3.51,2.528c-0.208,0.147-0.413,0.297-0.622,0.443c-1.356,0.949-2.723,1.882-4.101,2.796l-5.472-8.629   l-2.334-3.683c16.093-8.45,21.319-20.145,26.385-31.482c4.323-9.675,8.793-19.679,20.331-28.84   c19.234-15.304,26.729-24.973,26.729-34.484c0-4.116-1.353-7.641-2.785-11.371c-1.684-4.386-3.425-8.921-3.425-15.417   c0-7.616,2.439-16.517,7.447-27.147h1.399h20.386c-0.037,1.836-0.104,3.67-0.191,5.503c-0.016,0.337-0.036,0.674-0.054,1.011   c-0.084,1.605-0.186,3.209-0.309,4.811c-0.017,0.227-0.034,0.453-0.052,0.68c-0.918,11.433-2.821,22.755-5.684,33.817   c-0.17,0.656-0.342,1.311-0.519,1.965l-0.344,1.271l-0.007,0.021c-0.017,0.052-0.032,0.104-0.047,0.155   C470.304,326.888,463.814,342.286,455.472,356.765z"/><path d="M231.589,225.178c0.703-1.278,0.654-2.837-0.126-4.069L124.265,51.993L123.32,50.5c-0.568-0.897-1.469-1.532-2.505-1.765   c-1.036-0.232-2.122-0.043-3.019,0.526c-0.005,0.003-0.01,0.007-0.015,0.01c-1.69,1.073-3.363,2.172-5.021,3.294   c-0.507,0.343-1.003,0.702-1.507,1.049c-1.161,0.801-2.321,1.602-3.466,2.427c-0.508,0.366-1.005,0.745-1.509,1.115   c-1.138,0.835-2.274,1.673-3.394,2.531c-0.447,0.343-0.885,0.696-1.33,1.042c-1.173,0.913-2.34,1.832-3.493,2.771   c-0.372,0.304-0.739,0.615-1.109,0.921c-1.218,1.005-2.427,2.02-3.622,3.053c-0.301,0.26-0.597,0.525-0.896,0.787   c-1.251,1.094-2.491,2.201-3.715,3.325c-0.25,0.229-0.496,0.462-0.745,0.693c-1.256,1.164-2.498,2.342-3.725,3.538   c-0.227,0.221-0.451,0.444-0.677,0.666c-0.72,0.708-1.449,1.406-2.158,2.125c-0.082,0.083-0.142,0.179-0.215,0.267   c-12.067,12.259-22.627,25.987-31.288,40.839c-0.066,0.113-0.126,0.231-0.181,0.352l-1.007,1.752   c-4.387,7.762-8.25,15.784-11.58,24.006c-0.092,0.159-0.187,0.315-0.258,0.491c-9.863,24.454-14.864,50.339-14.864,76.937   c0,2.209,1.791,4,4,4h0.074h28.244h173.745C229.542,227.25,230.886,226.456,231.589,225.178z M30.127,219.25   c0.597-32.659,9.403-64.911,25.545-93.472l1.161-2.02c0.058-0.1,0.11-0.203,0.159-0.308c8.573-14.641,19.052-28.157,31.061-40.157   c0.027-0.027,0.055-0.054,0.082-0.081c1.263-1.26,2.543-2.502,3.839-3.728c0.149-0.141,0.3-0.281,0.45-0.422   c1.168-1.099,2.351-2.183,3.545-3.254c0.249-0.223,0.5-0.446,0.75-0.668c1.095-0.972,2.202-1.93,3.319-2.877   c0.336-0.285,0.671-0.57,1.009-0.852c1.038-0.869,2.087-1.724,3.143-2.572c0.406-0.326,0.81-0.655,1.219-0.978   c1.005-0.795,2.023-1.574,3.043-2.35c0.453-0.344,0.902-0.693,1.357-1.033c1.025-0.765,2.064-1.513,3.104-2.258   c0.448-0.321,0.89-0.649,1.34-0.966c1.351-0.951,2.715-1.883,4.09-2.8c0.127-0.085,0.252-0.174,0.379-0.258l7.702,12.172   c-15.936,8.435-21.139,20.088-26.184,31.387c-4.322,9.679-8.791,19.687-20.318,28.848c-19.243,15.298-26.74,24.961-26.74,34.467   c0,4.114,1.353,7.635,2.785,11.363c1.685,4.386,3.426,8.92,3.426,15.418c0,7.677-2.477,16.659-7.562,27.398H30.127z M60.617,219.25   c4.548-10.377,6.777-19.388,6.777-27.398c0-7.981-2.195-13.696-3.958-18.287c-1.258-3.276-2.252-5.864-2.252-8.494   c0-4.623,2.818-11.589,23.718-28.205c13.057-10.376,18.15-21.784,22.645-31.849c4.939-11.061,9.252-20.712,23.19-27.873   l90.076,142.106H60.617z"/><path d="M283.932,98.352c-15.766,0-28.593,12.818-28.593,28.575c0,15.758,12.827,28.578,28.593,28.578   c15.757,0,28.576-12.82,28.576-28.578C312.508,111.17,299.688,98.352,283.932,98.352z M283.932,147.505   c-11.354,0-20.593-9.231-20.593-20.578c0-11.345,9.238-20.575,20.593-20.575c11.346,0,20.576,9.23,20.576,20.575   C304.508,138.273,295.277,147.505,283.932,147.505z"/><path d="M397.28,163.784c-4.979,0-9.903,1.32-14.245,3.82c-8.821,5.103-14.301,14.594-14.301,24.77c0,4.991,1.326,9.93,3.84,14.288   c5.09,8.8,14.582,14.267,24.771,14.267c4.991,0,9.93-1.322,14.283-3.826c8.813-5.079,14.289-14.563,14.289-24.751   c0-4.995-1.328-9.931-3.84-14.272C416.978,169.262,407.477,163.784,397.28,163.784z M407.638,210.169   c-3.139,1.805-6.698,2.759-10.292,2.759c-7.343,0-14.182-3.936-17.845-10.268c-1.81-3.139-2.767-6.696-2.767-10.287   c0-7.33,3.949-14.168,10.3-17.841c3.123-1.798,6.666-2.749,10.246-2.749c7.35,0,14.197,3.947,17.872,10.3c0,0,0.001,0,0.001,0.001   c1.809,3.126,2.765,6.676,2.765,10.267C417.918,199.688,413.978,206.517,407.638,210.169z"/><path d="M411.617,298.49c-4.346-2.516-9.283-3.846-14.278-3.846c-10.18,0-19.669,5.473-24.765,14.282   c-2.513,4.343-3.841,9.277-3.841,14.27c0,10.193,5.483,19.68,14.301,24.752c4.346,2.516,9.283,3.846,14.277,3.846   c10.18,0,19.669-5.473,24.766-14.283c2.514-4.343,3.842-9.276,3.842-14.27C425.919,313.049,420.436,303.563,411.617,298.49z    M415.153,333.504C415.153,333.505,415.153,333.505,415.153,333.504c-3.672,6.348-10.509,10.29-17.842,10.29   c-3.589,0-7.14-0.958-10.279-2.774c-6.353-3.655-10.299-10.484-10.299-17.823c0-3.588,0.956-7.137,2.765-10.264   c3.672-6.346,10.508-10.288,17.841-10.288c3.59,0,7.141,0.958,10.28,2.775c6.354,3.654,10.3,10.483,10.3,17.821   C417.919,326.829,416.963,330.378,415.153,333.504z"/><path d="M283.914,417.201c15.767,0,28.594-12.803,28.594-28.539c0-15.758-12.827-28.577-28.594-28.577   c-15.757,0-28.575,12.819-28.575,28.577C255.339,404.398,268.157,417.201,283.914,417.201z M283.914,368.085   c11.355,0,20.594,9.23,20.594,20.577c0,11.325-9.238,20.539-20.594,20.539c-11.345,0-20.575-9.214-20.575-20.539   C263.339,377.315,272.569,368.085,283.914,368.085z"/><path d="M145.75,337.511c5.096,8.811,14.588,14.284,24.772,14.284c4.997,0,9.938-1.33,14.284-3.843   c8.822-5.084,14.303-14.574,14.303-24.768c0-4.988-1.326-9.919-3.835-14.258c-5.101-8.816-14.605-14.294-24.803-14.294   c-4.982,0-9.909,1.319-14.26,3.822c-8.813,5.104-14.287,14.606-14.287,24.798c0,4.987,1.323,9.916,3.825,14.254   C145.748,337.508,145.749,337.509,145.75,337.511z M160.208,305.384c3.129-1.8,6.677-2.751,10.261-2.751   c7.353,0,14.203,3.946,17.878,10.3c1.806,3.122,2.761,6.668,2.761,10.252c0,7.342-3.946,14.176-10.302,17.839   c-3.135,1.813-6.691,2.771-10.284,2.771c-7.337,0-14.175-3.942-17.846-10.289c-1.801-3.123-2.753-6.668-2.753-10.253   C149.922,315.905,153.868,309.056,160.208,305.384z"/><path d="M127.38,137.374c-4.339-2.496-9.266-3.814-14.248-3.814c-10.2,0-19.705,5.478-24.805,14.296   c-2.512,4.342-3.84,9.276-3.84,14.269c0,10.194,5.484,19.68,14.309,24.753c4.346,2.503,9.282,3.826,14.275,3.826   c10.195,0,19.69-5.467,24.785-14.277c2.5-4.349,3.822-9.281,3.822-14.265C141.679,151.981,136.204,142.485,127.38,137.374z    M130.927,172.431c-3.665,6.336-10.507,10.273-17.855,10.273c-3.594,0-7.149-0.954-10.285-2.76   c-6.353-3.652-10.299-10.48-10.299-17.819c0-3.588,0.956-7.137,2.765-10.263c3.675-6.354,10.527-10.302,17.88-10.302   c3.584,0,7.132,0.951,10.249,2.743c6.352,3.679,10.297,10.523,10.297,17.86C133.679,165.748,132.725,169.302,130.927,172.431z"/></g><text x="22.021" y="478.69399999999996" fill="#000000" font-size="5px" font-weight="bold" font-family="'Helvetica Neue', Helvetica, Arial-Unicode, Arial, Sans-serif">Created by ibrandify</text><text x="22.021" y="483.69399999999996" fill="#000000" font-size="5px" font-weight="bold" font-family="'Helvetica Neue', Helvetica, Arial-Unicode, Arial, Sans-serif">from the Noun Project</text></svg>