<svg xmlns="http://www.w3.org/2000/svg" viewBox="0 0 100 125" x="0px" y="0px"><title>beef</title><g data-name="Layer 7"><path d="M75.75,81.4a22.71,22.71,0,0,1-13,4.4l-.76,0c-.37,0-.73,0-1.1,0C38.36,85.1,10.45,58.63,5.25,38.62l0-.12A5.11,5.11,0,0,1,5.09,38a.08.08,0,0,1,0,0c0-.14,0-.27-.08-.4V46.1c.06.72.16,1.45.29,2.2,4.25,22.78,47,59,70.17,42.57C89.62,80.88,95,71.79,95,64.12V57.34c-.16.68-.34,1.36-.57,2.07C92,66.62,85.75,74,75.75,81.4Z"/><path d="M86.87,37.9h0c-3.35-2.95-10.56-4.54-18.2-6.22-11.61-2.56-23.62-5.21-26-13.09C39.35,7.33,31.54,5.47,26.73,5.47a16.11,16.11,0,0,0-4,.45C22.56,6,7.27,9.2,5.5,31.5v2.67a22.51,22.51,0,0,0,.56,3.57.52.52,0,0,1,0,.11l.1.39,0,.13c5,19.28,33,45.76,54.7,46.42.36,0,.7,0,1,0l.74,0a21.71,21.71,0,0,0,12.45-4.21c9.83-7.25,16-14.49,18.32-21.5C96.72,49.25,91.68,42.14,86.87,37.9ZM71.72,75.73a19.18,19.18,0,0,1-11.65,3.73A32.14,32.14,0,0,1,46.5,76c-16.89-8-34.16-28.95-34.88-42.38a29.86,29.86,0,0,1,1-9.92c2.82-9.64,10.34-11.15,10.66-11.21a14,14,0,0,1,4.09-.59,11.71,11.71,0,0,1,5,1.05c.28.14.57.29.85.46,3,1.76,4.87,5,5.66,9.58a26.29,26.29,0,0,1,.36,3c.15,2.25,1.52,4.06,4.18,5.55l.06,0c4.22,2.34,11,3.52,17.58,4.67,6.83,1.19,13.28,2.31,17.31,4.66,3.76,2.19,6.43,4.7,7.93,7.44C90.63,56.17,85.72,65.39,71.72,75.73Z"/><path d="M77.87,41.76c-3.86-2.25-10.53-3.41-17-4.54-6.63-1.15-13.48-2.34-17.84-4.75l-.06,0c-3-1.67-4.57-3.76-4.75-6.39a26.72,26.72,0,0,0-.34-2.85c-.75-4.29-2.49-7.28-5.18-8.89A10.36,10.36,0,0,0,27.38,13a13.7,13.7,0,0,0-3.88.55c-.36.07-7.31,1.49-9.95,10.52a28.94,28.94,0,0,0-.93,9.59c.7,13.12,17.69,33.69,34.3,41.52,5.83,2.75,13.91,5,21.16,1.61a17.21,17.21,0,0,0,3-1.82C84.47,65.07,89.42,56,85.44,48.83,84,46.24,81.47,43.86,77.87,41.76ZM69.35,63.58l0,0A7,7,0,1,1,72,58.08,7,7,0,0,1,69.32,63.61Z"/><path d="M65,52.07a6,6,0,0,0-5.6,3.85,6.9,6.9,0,0,1,3.18-.79,7,7,0,0,1,7,6.82A6,6,0,0,0,65,52.07Z"/><path d="M62.61,56.13a5.89,5.89,0,0,0-3.54,1.19,6.33,6.33,0,0,0,0,.76,6,6,0,0,0,6,6,5.92,5.92,0,0,0,3.52-1.16,5.16,5.16,0,0,0,.07-.79A6,6,0,0,0,62.61,56.13Z"/></g></svg>