<svg xmlns="http://www.w3.org/2000/svg" width="38.025" height="36.27" viewBox="0 0 25.35 24.18">
  <defs>
    <style>
      .cls-1 {
        fill: #fbaa02;
        fill-rule: evenodd;
      }
    </style>
  </defs>
  <path id="Rating_star.svg" data-name="Rating star.svg" class="cls-1" d="M3453.61,2055.53a1.02,1.02,0,0,0-.82-0.7l-7.51-1.09-3.37-6.82a1.06,1.06,0,0,0-1.83,0l-3.36,6.82-7.51,1.09a1.026,1.026,0,0,0-.57,1.75l5.44,5.31-1.29,7.5a1.05,1.05,0,0,0,.41,1,1.028,1.028,0,0,0,1.08.08l6.72-3.54,6.71,3.54a1.062,1.062,0,0,0,.49.11,0.988,0.988,0,0,0,.59-0.19,1.01,1.01,0,0,0,.41-1l-1.28-7.5,5.44-5.31A1.024,1.024,0,0,0,3453.61,2055.53Z" transform="translate(-3428.31 -2046.41)"/>
</svg>
